<svg id="bottom_row" data-name="bottom row" xmlns="http://www.w3.org/2000/svg" viewBox="0 0 250 350"><defs><style>.cls-1{fill:#2b2b2b;}.cls-2{isolation:isolate;}.cls-3{fill:#c0b073;}.cls-4{fill:none;stroke:#c0b073;stroke-miterlimit:10;}</style></defs><title>h-10</title><g id="_10_spades" data-name=" 10 spades"><rect class="cls-1" width="250" height="350" rx="10" ry="10"/><g class="cls-2"><path class="cls-3" d="M14.41,34.56h0.8c1.28-.08,1.92-0.88,1.92-2.52V15.76c0-2-.24-2.16-2.48-2.24V13.16a19.36,19.36,0,0,0,8.52-4.32h0.36V32.72a1.69,1.69,0,0,0,1.8,1.84h1.2V35H14.41V34.56Z"/><path class="cls-3" d="M44,12.32c2,2.16,3.24,6,3.24,9.92,0,7.36-4.16,13.4-9.24,13.4-5.6,0-9.52-5.4-9.52-13.08,0-3.64.72-6.56,2.2-8.76C32.57,11,35.25,9.36,38,9.36A8.73,8.73,0,0,1,44,12.32Zm-8.68-.72c-0.4,1.12-.6,3.68-0.6,7.84,0,7.08.28,12.48,0.76,13.88s1.16,1.92,2.24,1.92A2.36,2.36,0,0,0,40,33.56c0.52-1.24.76-4.76,0.76-10.76a64.85,64.85,0,0,0-.6-10.68c-0.36-1.56-1.28-2.48-2.52-2.48A2.61,2.61,0,0,0,35.37,11.6Z"/></g><path class="cls-4" d="M14.41,34.56h0.8c1.28-.08,1.92-0.88,1.92-2.52V15.76c0-2-.24-2.16-2.48-2.24V13.16a19.36,19.36,0,0,0,8.52-4.32h0.36V32.72a1.69,1.69,0,0,0,1.53,1.84h1.47V35H14.41V34.56Z"/><path class="cls-4" d="M44,12.32c2,2.16,3.24,6,3.24,9.92,0,7.36-4.16,13.4-9.24,13.4-5.6,0-9.52-5.4-9.52-13.08,0-3.64.72-6.56,2.2-8.76C32.57,11,35.25,9.36,38,9.36A8.73,8.73,0,0,1,44,12.32Zm-8.68-.72c-0.4,1.12-.6,3.68-0.6,7.84,0,7.08.28,12.48,0.76,13.88s1.16,1.92,2.24,1.92A2.36,2.36,0,0,0,40,33.56c0.52-1.24.76-4.76,0.76-10.76a64.85,64.85,0,0,0-.6-10.68c-0.36-1.56-1.28-2.48-2.52-2.48a2.61,2.61,0,0,0-2.27,2h0Z"/><g class="cls-2"><path class="cls-3" d="M233.92,314.52h-0.8c-1.28.08-1.92,0.88-1.92,2.52v16.28c0,2,.24,2.16,2.48,2.24v0.36a19.36,19.36,0,0,0-8.52,4.32H224.8V316.36a1.69,1.69,0,0,0-1.8-1.84h-1.2V314h12.12v0.48Z"/><path class="cls-3" d="M204.28,336.75c-2-2.16-3.24-6-3.24-9.92,0-7.36,4.16-13.4,9.24-13.4,5.6,0,9.52,5.4,9.52,13.08a15.45,15.45,0,0,1-2.2,8.76c-1.84,2.8-4.52,4.44-7.24,4.44A8.73,8.73,0,0,1,204.28,336.75Zm8.68,0.72c0.4-1.12.6-3.68,0.6-7.84,0-7.08-.28-12.48-0.76-13.88s-1.16-1.92-2.24-1.92a2.36,2.36,0,0,0-2.24,1.68c-0.52,1.24-.76,4.76-0.76,10.76a64.91,64.91,0,0,0,.6,10.68c0.36,1.56,1.28,2.48,2.52,2.48A2.61,2.61,0,0,0,213,337.48Z"/></g><path class="cls-4" d="M233.92,314.52h-0.8c-1.28.08-1.92,0.88-1.92,2.52v16.28c0,2,.24,2.16,2.48,2.24v0.36a19.36,19.36,0,0,0-8.52,4.32H224.8V316.36a1.69,1.69,0,0,0-1.53-1.84H221.8V314h12.12v0.52Z"/><path class="cls-4" d="M204.28,336.75c-2-2.16-3.24-6-3.24-9.92,0-7.36,4.16-13.4,9.24-13.4,5.6,0,9.52,5.4,9.52,13.08a15.45,15.45,0,0,1-2.2,8.76c-1.84,2.8-4.52,4.44-7.24,4.44A8.73,8.73,0,0,1,204.28,336.75Zm8.68,0.72c0.4-1.12.6-3.68,0.6-7.84,0-7.08-.28-12.48-0.76-13.88s-1.16-1.92-2.24-1.92a2.36,2.36,0,0,0-2.24,1.68c-0.52,1.24-.76,4.76-0.76,10.76a64.91,64.91,0,0,0,.6,10.68c0.36,1.56,1.28,2.48,2.52,2.48a2.61,2.61,0,0,0,2.32-1.95h0Z"/><path id="Fill-131" class="cls-3" d="M124.22,60.61c-0.17.37-.35,0.37-0.5,0-2.9-6.94-7.68-8.45-11-7.54-5,1.38-9,6.47-8.64,13C104.18,77.41,116,83.12,124,94c8-10.84,19.95-16.54,20-27.93a11.91,11.91,0,0,0-8.71-12.93C131.7,52.12,126.23,53.77,124.22,60.61Z"/><path id="Fill-131-2" class="cls-3" d="M124.22,132.11c-0.17.37-.35,0.37-0.5,0-2.9-6.94-7.68-8.45-11-7.54-5,1.38-9,6.47-8.64,13,0.1,11.34,11.93,17,19.92,27.89,8-10.84,19.95-16.54,20-27.93a11.91,11.91,0,0,0-8.71-12.93C131.7,123.62,126.23,125.27,124.22,132.11Z"/><path id="Fill-131-3" class="cls-3" d="M124.22,198.19c-0.17.37-.35,0.37-0.5,0-2.9-6.94-7.68-8.45-11-7.54-5,1.38-9,6.47-8.64,13,0.1,11.35,11.92,17,19.92,27.89,8-10.84,19.95-16.54,20-27.93a11.91,11.91,0,0,0-8.71-12.93C131.7,189.68,126.23,191.33,124.22,198.19Z"/><path id="Fill-131-4" class="cls-3" d="M86.22,96.08c-0.17.37-.35,0.37-0.5,0-2.9-6.94-7.68-8.45-11-7.54-5,1.38-9,6.47-8.64,13,0.1,11.34,11.93,17,19.92,27.89,8-10.84,19.95-16.54,20-27.93a11.91,11.91,0,0,0-8.71-12.93C93.7,87.59,88.23,89.19,86.22,96.08Z"/><path id="Fill-131-5" class="cls-3" d="M86.22,167.58c-0.17.37-.35,0.37-0.5,0-2.9-6.94-7.68-8.45-11-7.54-5,1.38-9,6.47-8.64,13C66.18,184.38,78,190,86,200.93c8-10.84,19.95-16.54,20-27.93a11.91,11.91,0,0,0-8.71-12.93C93.7,159.09,88.23,160.74,86.22,167.58Z"/><path id="Fill-131-6" class="cls-3" d="M86.22,233.65c-0.17.37-.35,0.37-0.5,0-2.9-6.94-7.68-8.45-11-7.54-5,1.38-9,6.47-8.64,13C66.18,250.45,78,256.16,86,267c8-10.84,19.95-16.54,20-27.93a11.91,11.91,0,0,0-8.71-12.93C93.7,225.19,88.23,226.81,86.22,233.65Z"/><path id="Fill-131-7" class="cls-3" d="M165.22,98.8c-0.17.37-.35,0.37-0.5,0-2.9-6.94-7.68-8.45-11-7.54-5,1.38-9,6.47-8.64,13,0.1,11.34,11.93,17,19.92,27.89,8-10.84,19.95-16.54,20-27.93a11.91,11.91,0,0,0-8.71-12.93C172.7,90.31,167.23,92,165.22,98.8Z"/><path id="Fill-131-8" class="cls-3" d="M165.22,170.3c-0.17.37-.35,0.37-0.5,0-2.9-6.94-7.68-8.45-11-7.54-5,1.38-9,6.47-8.64,13,0.1,11.34,11.93,17,19.92,27.89,8-10.84,19.95-16.54,20-27.93a11.91,11.91,0,0,0-8.71-12.93C172.7,161.81,167.23,163.46,165.22,170.3Z"/><path id="Fill-131-9" class="cls-3" d="M165.22,236.37c-0.17.37-.35,0.37-0.5,0-2.9-6.94-7.68-8.45-11-7.54-5,1.38-9,6.47-8.64,13,0.1,11.34,11.93,17.05,19.92,27.89,8-10.84,19.95-16.54,20-27.93a11.91,11.91,0,0,0-8.71-12.93C172.7,227.87,167.23,229.52,165.22,236.37Z"/><path id="Fill-131-10" class="cls-3" d="M124.22,266.32c-0.17.37-.35,0.37-0.5,0-2.9-6.94-7.68-8.45-11-7.54-5,1.38-9,6.47-8.64,13,0.1,11.34,11.93,17,19.92,27.89,8-10.84,19.95-16.54,20-27.93a11.91,11.91,0,0,0-8.71-12.93C131.7,257.82,126.23,259.47,124.22,266.32Z"/></g></svg>