<svg id="top_row" data-name="top row" xmlns="http://www.w3.org/2000/svg" viewBox="0 0 250 350"><defs><style>.cls-1{fill:#2b2b2b;}.cls-2{isolation:isolate;}.cls-3{fill:#c0b073;}.cls-4{fill:none;stroke:#c0b073;stroke-miterlimit:10;}</style></defs><title>h-4</title><g id="_4_spades" data-name=" 4 spades"><rect class="cls-1" width="250" height="350" rx="10" ry="10"/><g class="cls-2"><path class="cls-3" d="M20.29,10.64h5.24V27.12h1.76c1,0,1.52-.52,2-2h0.44l-0.8,3.32h-3.4V33c-0.08,2.2.12,2.48,1.76,2.6h1.08V36H15.45V35.56h1.68c1.48-.16,1.68-0.52,1.72-2.8V28.48H10ZM18.85,27.12V14L11.33,27.12h7.52Z"/></g><path class="cls-4" d="M20.29,10.64h5.24V27.12h1.76c1,0,1.52-.52,2-2h0.44l-0.8,3.32h-3.4V33c-0.08,2.2.12,2.48,1.76,2.6h1.08V36H15.45V35.56h1.68c1.48-.16,1.68-0.52,1.72-2.8V28.48H10ZM18.85,27.12V14L11.33,27.12h7.52Z"/><g class="cls-2"><path class="cls-3" d="M228,340.43H222.8V324H221c-1,0-1.52.52-2,2H218.6l0.8-3.32h3.4v-4.48c0.08-2.2-.12-2.48-1.76-2.6H220V315h12.92v0.48H231.2c-1.48.16-1.68,0.52-1.72,2.8v4.28h8.84ZM229.48,324v13.12L237,324h-7.52Z"/></g><path class="cls-4" d="M228,340.43h-5.2V324H221c-1,0-1.52.52-2,2h-0.4l0.8-3.32h3.4V318.2c0.08-2.2-.12-2.48-1.76-2.6h-1V315h12.92v0.48H231.2c-1.48.16-1.68,0.52-1.72,2.8v4.28h8.84ZM229.48,324v13.12L237,324h-7.52Z"/><path id="Fill-131" class="cls-3" d="M95.21,130c-0.17.37-.35,0.37-0.5,0-2.9-6.94-7.68-8.45-11-7.54-5,1.38-9,6.47-8.64,13,0.1,11.34,11.93,17,19.92,27.89,8-10.84,20-16.54,20-27.93a11.91,11.91,0,0,0-8.71-12.93C102.69,121.54,97.22,123.19,95.21,130Z"/><path id="Fill-131-2" class="cls-3" d="M154.88,130c-0.17.37-.35,0.37-0.5,0-2.9-6.94-7.68-8.45-11-7.54-5,1.38-9,6.47-8.64,13,0.1,11.34,11.93,17,19.92,27.89,8-10.84,19.95-16.54,20-27.93a11.91,11.91,0,0,0-8.66-12.9C162.36,121.54,156.89,123.19,154.88,130Z"/><path id="Fill-131-3" class="cls-3" d="M95.88,200.37c-0.17.37-.35,0.37-0.5,0-2.9-6.94-7.68-8.45-11-7.54-5,1.38-9,6.47-8.64,13,0.1,11.34,11.93,17,19.92,27.89,8-10.84,20-16.54,20-27.93A11.91,11.91,0,0,0,107,192.86C103.36,191.87,97.89,193.52,95.88,200.37Z"/><path id="Fill-131-4" class="cls-3" d="M155.55,200.37c-0.17.37-.35,0.37-0.5,0-2.9-6.94-7.68-8.45-11-7.54-5,1.38-9,6.47-8.64,13,0.1,11.34,11.93,17,19.92,27.89,8-10.84,19.95-16.54,20-27.93a11.91,11.91,0,0,0-8.71-12.93C163,191.87,157.56,193.52,155.55,200.37Z"/></g></svg>