<svg id="top_row" data-name="top row" xmlns="http://www.w3.org/2000/svg" viewBox="0 0 250 350"><defs><style>.cls-1{fill:#2b2b2b;}.cls-2{isolation:isolate;}.cls-3{fill:#c0b073;}.cls-4{fill:none;stroke:#c0b073;stroke-miterlimit:10;}</style></defs><title>h-6</title><g id="_6_spades" data-name=" 6 spades"><rect class="cls-1" width="250" height="350" rx="10" ry="10"/><g class="cls-2"><path class="cls-3" d="M22.25,8.31a3.18,3.18,0,0,0-3,1.72c-1.28,2.4-1.56,4.08-1.56,9.72,0,0.2,0,1.28,0,2.24a4.8,4.8,0,0,1,1.2-2.2,4,4,0,0,1,3.64-1.6,6.81,6.81,0,0,1,7.12,7,8.75,8.75,0,0,1-8.48,9c-5.6,0-9.68-5.24-9.68-12.36,0-7.88,4.76-13.8,11-13.8,3.6,0,6.16,2,6.16,4.84a3.39,3.39,0,0,1-3.4,3.56,3.07,3.07,0,0,1-3.12-3.2,3.62,3.62,0,0,1,1.16-2.68,2.59,2.59,0,0,1,1.92-.72A3.16,3.16,0,0,0,22.25,8.31ZM17.89,25.15a23.06,23.06,0,0,0,1,6.92,2.27,2.27,0,0,0,2.28,1.6,2.19,2.19,0,0,0,2.12-1.2,30.22,30.22,0,0,0,.6-6.92,16,16,0,0,0-1.08-5.92,1.68,1.68,0,0,0-1.48-.88C19.21,18.75,17.89,21.19,17.89,25.15Z"/></g><path class="cls-4" d="M22.25,8.31a3.18,3.18,0,0,0-3,1.72c-1.28,2.4-1.56,4.08-1.56,9.72V22a4.8,4.8,0,0,1,1.2-2.2,4,4,0,0,1,3.64-1.6,6.81,6.81,0,0,1,7.12,6.49q0,0.25,0,.51a8.75,8.75,0,0,1-8.48,9c-5.6,0-9.68-5.24-9.68-12.36,0-7.88,4.76-13.8,11-13.8,3.6,0,6.16,2,6.16,4.84a3.39,3.39,0,0,1-3.22,3.56H25.25a3.07,3.07,0,0,1-3.12-3q0-.09,0-0.18a3.62,3.62,0,0,1,1.16-2.68,2.59,2.59,0,0,1,2-.82A3.16,3.16,0,0,0,22.25,8.31ZM17.89,25.15a23.06,23.06,0,0,0,1,6.92,2.27,2.27,0,0,0,2.28,1.6,2.19,2.19,0,0,0,2.12-1.2,30.22,30.22,0,0,0,.6-6.92,16,16,0,0,0-1.08-5.92,1.68,1.68,0,0,0-1.48-.9C19.21,18.73,17.89,21.19,17.89,25.15Z"/><g class="cls-2"><path class="cls-3" d="M226.08,337.41a3.18,3.18,0,0,0,3-1.72c1.28-2.4,1.56-4.08,1.56-9.72,0-.2,0-1.28,0-2.24a4.81,4.81,0,0,1-1.2,2.2,4,4,0,0,1-3.64,1.6,6.81,6.81,0,0,1-7.12-7,8.75,8.75,0,0,1,8.48-9c5.6,0,9.68,5.24,9.68,12.36,0,7.88-4.76,13.8-11,13.8-3.6,0-6.16-2-6.16-4.84a3.39,3.39,0,0,1,3.4-3.56,3.07,3.07,0,0,1,3.12,3.2,3.62,3.62,0,0,1-1.16,2.68,2.58,2.58,0,0,1-1.92.72A3.16,3.16,0,0,0,226.08,337.41Zm4.36-16.84a23,23,0,0,0-1-6.92,2.27,2.27,0,0,0-2.28-1.6,2.19,2.19,0,0,0-2.12,1.2,30.21,30.21,0,0,0-.6,6.92,16,16,0,0,0,1.08,5.92A1.68,1.68,0,0,0,227,327C229.12,327,230.44,324.53,230.44,320.57Z"/></g><path class="cls-4" d="M226.08,337.41a3.18,3.18,0,0,0,3-1.72c1.28-2.4,1.56-4.08,1.56-9.72v-2.24a4.81,4.81,0,0,1-1.2,2.2,4,4,0,0,1-3.64,1.6,6.81,6.81,0,0,1-7.12-6.49q0-.25,0-0.51a8.75,8.75,0,0,1,8.48-9c5.6,0,9.68,5.24,9.68,12.36,0,7.88-4.76,13.8-11,13.8-3.6,0-6.16-2-6.16-4.84a3.39,3.39,0,0,1,3.22-3.56h0.18a3.07,3.07,0,0,1,3.12,3q0,0.09,0,.18a3.62,3.62,0,0,1-1.16,2.68,2.58,2.58,0,0,1-1.92.72A3.16,3.16,0,0,0,226.08,337.41Zm4.36-16.84a23,23,0,0,0-1-6.92,2.27,2.27,0,0,0-2.28-1.6,2.19,2.19,0,0,0-2.12,1.2,30.21,30.21,0,0,0-.6,6.92,16,16,0,0,0,1.08,5.92A1.68,1.68,0,0,0,227,327C229.12,327,230.44,324.53,230.44,320.57Z"/><path id="Fill-131" class="cls-3" d="M95.55,97c-0.17.37-.35,0.37-0.5,0-2.9-6.94-7.68-8.45-11-7.54-5,1.38-9,6.47-8.64,13,0.1,11.34,11.93,17,19.92,27.89,8-10.84,19.95-16.54,20-27.93a11.91,11.91,0,0,0-8.71-12.93C103,88.5,97.56,90.19,95.55,97Z"/><path id="Fill-131-2" class="cls-3" d="M155,97c-0.17.37-.35,0.37-0.5,0-2.9-6.94-7.68-8.45-11-7.54-5,1.38-9,6.47-8.64,13,0.1,11.34,11.93,17,19.92,27.89,8-10.84,19.95-16.54,20-27.93a11.91,11.91,0,0,0-8.71-12.93C162.53,88.5,157.06,90.19,155,97Z"/><path id="Fill-131-3" class="cls-3" d="M95.46,165.86c-0.17.37-.35,0.37-0.5,0-2.9-6.94-7.68-8.45-11-7.54-5,1.38-9,6.47-8.64,13,0.1,11.34,11.93,17,19.92,27.89,8-10.84,20-16.54,20-27.93a11.91,11.91,0,0,0-8.71-12.93C102.94,157.37,97.47,159,95.46,165.86Z"/><path id="Fill-131-4" class="cls-3" d="M155,165.86c-0.17.37-.35,0.37-0.5,0-2.9-6.94-7.68-8.45-11-7.54-5,1.38-9,6.47-8.64,13,0.1,11.34,11.93,17,19.92,27.89,8-10.84,19.95-16.54,20-27.93A11.91,11.91,0,0,0,166,158.35C162.41,157.37,157,159,155,165.86Z"/><path id="Fill-131-5" class="cls-3" d="M95.46,231.73c-0.17.37-.35,0.37-0.5,0-2.9-6.94-7.68-8.45-11-7.54-5,1.38-9,6.47-8.64,13,0.1,11.34,11.93,17,19.92,27.89,8-10.84,20-16.54,20-27.93a11.91,11.91,0,0,0-8.71-12.93C102.94,223.2,97.47,224.85,95.46,231.73Z"/><path id="Fill-131-6" class="cls-3" d="M155,231.73c-0.17.37-.35,0.37-0.5,0-2.9-6.94-7.68-8.45-11-7.54-5,1.38-9,6.47-8.64,13,0.1,11.34,11.93,17,19.92,27.89,8-10.84,19.95-16.54,20-27.93a11.91,11.91,0,0,0-8.78-13C162.41,223.2,157,224.85,155,231.73Z"/></g></svg>