<svg id="bottom_row" data-name="bottom row" xmlns="http://www.w3.org/2000/svg" viewBox="0 0 250 350"><defs><style>.cls-1{fill:#2b2b2b;}.cls-2{isolation:isolate;}.cls-3{fill:#c0b073;}.cls-4{fill:none;stroke:#c0b073;stroke-miterlimit:10;}</style></defs><title>h-7</title><g id="_7_spades" data-name=" 7 spades"><rect class="cls-1" width="250" height="350" rx="10" ry="10"/><g class="cls-2"><path class="cls-3" d="M14.17,11.68c1.84-2,3.16-2.76,5.16-2.76,1,0,1,0,5.68,1.52a5.15,5.15,0,0,0,1.6.24,2.84,2.84,0,0,0,2.24-.84l0.24,0.08c-0.36,4.36-.92,5.8-3.88,9.76S21.45,26,21.45,29.92A15.52,15.52,0,0,0,22.29,35H13.81c0-.76,0-1,0-1.64,0-4.36,2.16-7.76,7.84-12.2s6.08-5,6.84-9.48a8.25,8.25,0,0,1-2.56,2.76,6.39,6.39,0,0,1-3.64,1.12c-0.92,0-.92,0-5-1a3.4,3.4,0,0,0-.92-0.12,2.83,2.83,0,0,0-2.2,1,6,6,0,0,0-.92,2.88l-0.4,0a59.47,59.47,0,0,0,1-8.4h0.32v1.64Z"/></g><path class="cls-4" d="M14.17,11.68c1.84-2,3.16-2.76,5.16-2.76,1,0,1,0,5.68,1.52a5.15,5.15,0,0,0,1.6.24,2.84,2.84,0,0,0,2.24-.84l0.24,0.08c-0.36,4.36-.92,5.8-3.88,9.76S21.45,26,21.45,29.92A15.52,15.52,0,0,0,22.29,35H13.81V33.36c0-4.36,2.16-7.76,7.84-12.2s6.08-5,6.84-9.48a8.25,8.25,0,0,1-2.56,2.76,6.39,6.39,0,0,1-3.64,1.12c-0.92,0-.92,0-5-1a3.4,3.4,0,0,0-.92-0.12,2.83,2.83,0,0,0-2.2,1,6,6,0,0,0-.92,2.88h-0.4a59.47,59.47,0,0,0,1-8.4h0.32v1.76Z"/><g class="cls-2"><path class="cls-3" d="M234.16,337.4c-1.84,2-3.16,2.76-5.16,2.76-1,0-1,0-5.68-1.52a5.15,5.15,0,0,0-1.6-.24,2.84,2.84,0,0,0-2.24.84l-0.24-.08c0.36-4.36.92-5.8,3.88-9.76s3.76-6.36,3.76-10.24A15.53,15.53,0,0,0,226,314h8.48c0,0.76,0,1,0,1.64,0,4.36-2.16,7.76-7.84,12.2s-6.08,5-6.84,9.48a8.25,8.25,0,0,1,2.56-2.76,6.39,6.39,0,0,1,3.64-1.12c0.92,0,.92,0,5,1a3.4,3.4,0,0,0,.92.12,2.83,2.83,0,0,0,2.2-1,6,6,0,0,0,.92-2.88l0.4,0a59.54,59.54,0,0,0-1,8.4h-0.32V337.4Z"/></g><path class="cls-4" d="M234.16,337.4c-1.84,2-3.16,2.76-5.16,2.76-1,0-1,0-5.68-1.52a5.15,5.15,0,0,0-1.6-.24,2.84,2.84,0,0,0-2.24.84l-0.24-.08c0.36-4.36.92-5.8,3.88-9.76s3.76-6.36,3.76-10.24A15.53,15.53,0,0,0,226,314h8.48v1.64c0,4.36-2.16,7.76-7.84,12.2s-6.08,5-6.84,9.48a8.25,8.25,0,0,1,2.56-2.76,6.39,6.39,0,0,1,3.64-1.12c0.92,0,.92,0,5,1a3.4,3.4,0,0,0,.92.12,2.83,2.83,0,0,0,2.2-1,6,6,0,0,0,.92-2.88h0.4a59.54,59.54,0,0,0-1,8.4h-0.32V337.4h0Z"/><path id="Fill-131" class="cls-3" d="M124.22,96.55c-0.17.37-.35,0.37-0.5,0-2.9-6.94-7.68-8.45-11-7.54-5,1.38-9,6.47-8.64,13,0.1,11.34,11.93,17,19.92,27.89,8-10.84,20-16.54,20-27.93a11.91,11.91,0,0,0-8.71-13C131.7,88,126.23,89.69,124.22,96.55Z"/><path id="Fill-131-2" class="cls-3" d="M124.22,165.2c-0.17.37-.35,0.37-0.5,0-2.9-6.94-7.68-8.45-11-7.54-5,1.38-9,6.47-8.64,13,0.1,11.34,11.93,17,19.92,27.89,8-10.84,20-16.54,20-27.93a11.91,11.91,0,0,0-8.71-12.93C131.7,156.71,126.23,158.36,124.22,165.2Z"/><path id="Fill-131-3" class="cls-3" d="M124.22,235.19c-0.17.37-.35,0.37-0.5,0-2.9-6.94-7.68-8.45-11-7.54-5,1.38-9,6.47-8.64,13C104.18,252,116,257.7,124,268.54c8-10.84,20-16.54,20-27.93a11.91,11.91,0,0,0-8.71-12.93C131.7,226.7,126.23,228.35,124.22,235.19Z"/><path id="Fill-131-4" class="cls-3" d="M164,131c-0.17.37-.35,0.37-0.5,0-2.9-6.94-7.68-8.45-11-7.54-5,1.38-9,6.47-8.64,13,0.1,11.34,11.93,17,19.92,27.89,8-10.84,20-16.54,20-27.93a11.91,11.91,0,0,0-8.78-13C171.53,122.48,166.06,124.13,164,131Z"/><path id="Fill-131-5" class="cls-3" d="M86.22,131c-0.17.37-.35,0.37-0.5,0-2.9-6.94-7.68-8.45-11-7.54-5,1.38-9,6.47-8.64,13,0.1,11.34,11.93,17,19.92,27.89,8-10.84,20-16.54,20-27.93a11.91,11.91,0,0,0-8.71-12.93C93.7,122.48,88.23,124.13,86.22,131Z"/><path id="Fill-131-6" class="cls-3" d="M164.14,197.86c-0.17.37-.35,0.37-0.5,0-2.9-6.94-7.68-8.45-11-7.54-5,1.38-9,6.47-8.64,13,0.1,11.34,11.93,17.05,19.92,27.89,8-10.84,20-16.54,20-27.93a11.91,11.91,0,0,0-8.71-12.93C171.62,189.37,166.14,191,164.14,197.86Z"/><path id="Fill-131-7" class="cls-3" d="M86.3,197.86c-0.17.37-.35,0.37-0.5,0-2.9-6.94-7.68-8.45-11-7.54-5,1.38-9,6.47-8.64,13,0.1,11.34,11.93,17.05,19.92,27.89,8-10.84,20-16.54,20-27.93a11.91,11.91,0,0,0-8.71-12.93C93.78,189.37,88.31,191,86.3,197.86Z"/></g></svg>