<svg id="bottom_row" data-name="bottom row" xmlns="http://www.w3.org/2000/svg" viewBox="0 0 250 350"><defs><style>.cls-1{fill:#2b2b2b;}.cls-2{isolation:isolate;}.cls-3{fill:#c0b073;}.cls-4{fill:none;stroke:#c0b073;stroke-miterlimit:10;}</style></defs><title>h-8</title><g id="_8_spades" data-name=" 8 spades"><rect class="cls-1" width="250" height="350" rx="10" ry="10"/><g class="cls-2"><path class="cls-3" d="M28.17,21.92a7.13,7.13,0,0,1,1.72,4.8c0,5-4.24,8.8-9.84,8.8-5.2,0-9.24-2.88-9.24-6.6a5.24,5.24,0,0,1,1.4-3.52A9.1,9.1,0,0,1,16.09,23c-2.68-2-3.44-3.24-3.44-5.76a7.11,7.11,0,0,1,3-6.12,9.3,9.3,0,0,1,5.32-1.84c3.8,0,7,2.52,7,5.56,0,1.84-1,3-3.8,4.64A9.74,9.74,0,0,1,28.17,21.92ZM16,24.32a9.54,9.54,0,0,0-.64,4.16,9.79,9.79,0,0,0,.76,4.16c0.76,1.72,2,2.44,4.08,2.44,2.88,0,4.52-1.6,4.52-4.48A5,5,0,0,0,22.29,26c-0.28-.16-2.12-1-5.52-2.68A5.48,5.48,0,0,0,16,24.32Zm8.52-9.12a8.11,8.11,0,0,0-.68-3.88,3.21,3.21,0,0,0-2.76-1.6c-1.92,0-3.24,1.64-3.24,4A4.26,4.26,0,0,0,19,16.88c0.92,0.84,1.12,1,4.4,2.4C24.33,18.24,24.53,17.52,24.53,15.2Z"/></g><path class="cls-4" d="M28.17,21.92a7.13,7.13,0,0,1,1.72,4.8c0,5-4.24,8.8-9.84,8.8-5.2,0-9.24-2.88-9.24-6.6a5.24,5.24,0,0,1,1.4-3.52A9.1,9.1,0,0,1,16.09,23c-2.68-2-3.44-3.24-3.44-5.76a7.11,7.11,0,0,1,3-6.12A9.3,9.3,0,0,1,21,9.28c3.8,0,7,2.52,7,5.56,0,1.84-1,3-3.8,4.64A9.74,9.74,0,0,1,28.17,21.92ZM16,24.32a9.54,9.54,0,0,0-.64,4.16,9.79,9.79,0,0,0,.76,4.16c0.76,1.72,2,2.44,4.08,2.44,2.88,0,4.52-1.6,4.52-4.48A5,5,0,0,0,22.29,26c-0.28-.16-2.12-1-5.52-2.68A5.48,5.48,0,0,0,16,24.32Zm8.52-9.12a8.11,8.11,0,0,0-.68-3.88,3.21,3.21,0,0,0-2.76-1.6c-1.92,0-3.24,1.64-3.24,4A4.26,4.26,0,0,0,19,16.88c0.92,0.84,1.12,1,4.4,2.4,0.93-1,1.13-1.76,1.13-4.08h0Z"/><g class="cls-2"><path class="cls-3" d="M220.16,327.16a7.13,7.13,0,0,1-1.72-4.8c0-5,4.24-8.8,9.84-8.8,5.2,0,9.24,2.88,9.24,6.6a5.24,5.24,0,0,1-1.4,3.52,9.11,9.11,0,0,1-3.88,2.44c2.68,2,3.44,3.24,3.44,5.76a7.11,7.11,0,0,1-3,6.12,9.3,9.3,0,0,1-5.32,1.84c-3.8,0-7-2.52-7-5.56,0-1.84,1-3,3.8-4.64A9.74,9.74,0,0,1,220.16,327.16Zm12.16-2.4a9.53,9.53,0,0,0,.64-4.16,9.79,9.79,0,0,0-.76-4.16c-0.76-1.72-2-2.44-4.08-2.44-2.88,0-4.52,1.6-4.52,4.48A5,5,0,0,0,226,323c0.28,0.16,2.12,1,5.52,2.68A5.46,5.46,0,0,0,232.32,324.76Zm-8.52,9.12a8.1,8.1,0,0,0,.68,3.88,3.21,3.21,0,0,0,2.76,1.6c1.92,0,3.24-1.64,3.24-4a4.26,4.26,0,0,0-1.16-3.12c-0.92-.84-1.12-1-4.4-2.4C224,330.84,223.8,331.56,223.8,333.88Z"/></g><path class="cls-4" d="M220.16,327.16a7.13,7.13,0,0,1-1.72-4.8c0-5,4.24-8.8,9.84-8.8,5.2,0,9.24,2.88,9.24,6.6a5.24,5.24,0,0,1-1.4,3.52,9.11,9.11,0,0,1-3.88,2.44c2.68,2,3.44,3.24,3.44,5.76a7.11,7.11,0,0,1-3,6.12,9.3,9.3,0,0,1-5.32,1.84c-3.8,0-7-2.52-7-5.56,0-1.84,1-3,3.8-4.64A9.74,9.74,0,0,1,220.16,327.16Zm12.16-2.4a9.53,9.53,0,0,0,.64-4.16,9.79,9.79,0,0,0-.76-4.16c-0.76-1.72-2-2.44-4.08-2.44-2.88,0-4.52,1.6-4.52,4.48A5,5,0,0,0,226,323c0.28,0.16,2.12,1,5.52,2.68A5.46,5.46,0,0,0,232.32,324.76Zm-8.52,9.12a8.1,8.1,0,0,0,.68,3.88,3.21,3.21,0,0,0,2.76,1.6c1.92,0,3.24-1.64,3.24-4a4.26,4.26,0,0,0-1.16-3.12c-0.92-.84-1.12-1-4.4-2.4C224,330.84,223.8,331.56,223.8,333.88Z"/><path id="Fill-131" class="cls-3" d="M86.22,96.55c-0.17.37-.35,0.37-0.5,0-2.9-6.94-7.68-8.45-11-7.54-5,1.38-9,6.47-8.64,13C66.18,113.35,78,119,86,129.9c8-10.84,20-16.54,20-27.93a11.91,11.91,0,0,0-8.71-13C93.7,88,88.23,89.69,86.22,96.55Z"/><path id="Fill-131-2" class="cls-3" d="M164,96.55c-0.17.37-.35,0.37-0.5,0-2.9-6.94-7.68-8.45-11-7.54-5,1.38-9,6.47-8.64,13,0.1,11.34,11.93,17,19.92,27.89,8-10.84,20-16.54,20-27.93A11.91,11.91,0,0,0,175,89C171.53,88,166.06,89.69,164,96.55Z"/><path id="Fill-131-3" class="cls-3" d="M86.3,163.86c-0.17.37-.35,0.37-0.5,0-2.9-6.94-7.68-8.45-11-7.54-5,1.38-9,6.47-8.64,13,0.1,11.34,11.93,17.05,19.92,27.89,8-10.84,20-16.54,20-27.93a11.91,11.91,0,0,0-8.71-12.93C93.78,155.37,88.31,157,86.3,163.86Z"/><path id="Fill-131-4" class="cls-3" d="M164.14,163.86c-0.17.37-.35,0.37-0.5,0-2.9-6.94-7.68-8.45-11-7.54-5,1.38-9,6.47-8.64,13,0.1,11.34,11.93,17.05,19.92,27.89,8-10.84,20-16.54,20-27.93a11.91,11.91,0,0,0-8.71-12.93C171.62,155.37,166.14,157,164.14,163.86Z"/><path id="Fill-131-5" class="cls-3" d="M86.3,237c-0.17.37-.35,0.37-0.5,0-2.9-6.94-7.68-8.45-11-7.54-5,1.38-9,6.47-8.64,13,0.1,11.34,11.93,17.05,19.92,27.89,8-10.84,20-16.54,20-27.93a11.91,11.91,0,0,0-8.71-12.93C93.78,228.55,88.31,230.19,86.3,237Z"/><path id="Fill-131-6" class="cls-3" d="M164.14,237c-0.17.37-.35,0.37-0.5,0-2.9-6.94-7.68-8.45-11-7.54-5,1.38-9,6.47-8.64,13,0.1,11.34,11.93,17.05,19.92,27.89,8-10.84,20-16.54,20-27.93a11.91,11.91,0,0,0-8.71-12.93C171.62,228.55,166.14,230.19,164.14,237Z"/><path id="Fill-131-7" class="cls-3" d="M124.22,198.55c-0.17.37-.35,0.37-0.5,0-2.9-6.94-7.68-8.45-11-7.54-5,1.38-9,6.47-8.64,13,0.1,11.34,11.93,17.05,19.92,27.89,8-10.84,20-16.54,20-27.93a11.91,11.91,0,0,0-8.71-13C131.7,190,126.23,191.68,124.22,198.55Z"/><path id="Fill-131-8" class="cls-3" d="M124.22,129c-0.17.37-.35,0.37-0.5,0-2.9-6.94-7.68-8.45-11-7.54-5,1.38-9,6.47-8.64,13,0.1,11.34,11.93,17,19.92,27.89,8-10.84,20-16.54,20-27.93a11.91,11.91,0,0,0-8.71-12.93C131.7,120.55,126.23,122.19,124.22,129Z"/></g></svg>