<svg id="bottom_row" data-name="bottom row" xmlns="http://www.w3.org/2000/svg" viewBox="0 0 250 350"><defs><style>.cls-1{fill:#2b2b2b;}.cls-2,.cls-4{fill:#fff;}.cls-2,.cls-5{stroke:#fff;stroke-miterlimit:10;}.cls-3{isolation:isolate;}.cls-5{fill:none;}</style></defs><title>s-10</title><g id="_10_spades" data-name=" 10 spades"><rect class="cls-1" width="250" height="350" rx="10" ry="10"/><g id="Page-1"><g id="Fill-14"><path class="cls-2" d="M124,185.51a94.79,94.79,0,0,1-9.36,15.12C108.31,209,105,213.7,105,219.95a8.44,8.44,0,0,0,8,8.72c4,0,6.56-1.44,7.91-6.6,0.55-2.09,1.72-1.68,1.41.6-0.37,2.69-.39,8.55-4.74,13.84h12.79c-4.34-5.29-4.37-11.15-4.74-13.84-0.31-2.28.86-2.69,1.41-.6,1.35,5.16,3.94,6.6,7.91,6.6a8.44,8.44,0,0,0,8-8.72c0-6.24-3.31-11-9.64-19.32A94.6,94.6,0,0,1,124,185.51"/></g></g><g class="cls-3"><path class="cls-4" d="M14.41,34.56h0.8c1.28-.08,1.92-0.88,1.92-2.52V15.76c0-2-.24-2.16-2.48-2.24V13.16a19.36,19.36,0,0,0,8.52-4.32h0.36V32.72a1.69,1.69,0,0,0,1.8,1.84h1.2V35H14.41V34.56Z"/><path class="cls-4" d="M44,12.32c2,2.16,3.24,6,3.24,9.92,0,7.36-4.16,13.4-9.24,13.4-5.6,0-9.52-5.4-9.52-13.08,0-3.64.72-6.56,2.2-8.76C32.57,11,35.25,9.36,38,9.36A8.73,8.73,0,0,1,44,12.32Zm-8.68-.72c-0.4,1.12-.6,3.68-0.6,7.84,0,7.08.28,12.48,0.76,13.88s1.16,1.92,2.24,1.92A2.36,2.36,0,0,0,40,33.56c0.52-1.24.76-4.76,0.76-10.76a64.85,64.85,0,0,0-.6-10.68c-0.36-1.56-1.28-2.48-2.52-2.48A2.61,2.61,0,0,0,35.37,11.6Z"/></g><path class="cls-5" d="M14.41,34.56h0.8c1.28-.08,1.92-0.88,1.92-2.52V15.76c0-2-.24-2.16-2.48-2.24V13.16a19.36,19.36,0,0,0,8.52-4.32h0.36V32.72a1.69,1.69,0,0,0,1.53,1.84h1.47V35H14.41V34.56Z"/><path class="cls-5" d="M44,12.32c2,2.16,3.24,6,3.24,9.92,0,7.36-4.16,13.4-9.24,13.4-5.6,0-9.52-5.4-9.52-13.08,0-3.64.72-6.56,2.2-8.76C32.57,11,35.25,9.36,38,9.36A8.73,8.73,0,0,1,44,12.32Zm-8.68-.72c-0.4,1.12-.6,3.68-0.6,7.84,0,7.08.28,12.48,0.76,13.88s1.16,1.92,2.24,1.92A2.36,2.36,0,0,0,40,33.56c0.52-1.24.76-4.76,0.76-10.76a64.85,64.85,0,0,0-.6-10.68c-0.36-1.56-1.28-2.48-2.52-2.48a2.61,2.61,0,0,0-2.27,2h0Z"/><g id="Page-1-2"><g id="Fill-14-2"><path class="cls-2" d="M163.84,223.45a94.79,94.79,0,0,1-9.36,15.12c-6.34,8.34-9.64,13.07-9.64,19.32a8.44,8.44,0,0,0,8,8.72c4,0,6.56-1.44,7.91-6.6,0.55-2.09,1.72-1.68,1.41.6-0.37,2.69-.39,8.55-4.74,13.84h12.79c-4.34-5.29-4.37-11.15-4.74-13.84-0.31-2.28.86-2.69,1.41-.6,1.35,5.16,3.94,6.6,7.91,6.6a8.44,8.44,0,0,0,8-8.72c0-6.24-3.31-11-9.64-19.32a94.6,94.6,0,0,1-9.35-15.12"/></g></g><g class="cls-3"><path class="cls-4" d="M233.92,314.52h-0.8c-1.28.08-1.92,0.88-1.92,2.52v16.28c0,2,.24,2.16,2.48,2.24v0.36a19.36,19.36,0,0,0-8.52,4.32H224.8V316.36a1.69,1.69,0,0,0-1.8-1.84h-1.2V314h12.12v0.48Z"/><path class="cls-4" d="M204.28,336.75c-2-2.16-3.24-6-3.24-9.92,0-7.36,4.16-13.4,9.24-13.4,5.6,0,9.52,5.4,9.52,13.08a15.45,15.45,0,0,1-2.2,8.76c-1.84,2.8-4.52,4.44-7.24,4.44A8.73,8.73,0,0,1,204.28,336.75Zm8.68,0.72c0.4-1.12.6-3.68,0.6-7.84,0-7.08-.28-12.48-0.76-13.88s-1.16-1.92-2.24-1.92a2.36,2.36,0,0,0-2.24,1.68c-0.52,1.24-.76,4.76-0.76,10.76a64.91,64.91,0,0,0,.6,10.68c0.36,1.56,1.28,2.48,2.52,2.48A2.61,2.61,0,0,0,213,337.48Z"/></g><path class="cls-5" d="M233.92,314.52h-0.8c-1.28.08-1.92,0.88-1.92,2.52v16.28c0,2,.24,2.16,2.48,2.24v0.36a19.36,19.36,0,0,0-8.52,4.32H224.8V316.36a1.69,1.69,0,0,0-1.53-1.84H221.8V314h12.12v0.52Z"/><path class="cls-5" d="M204.28,336.75c-2-2.16-3.24-6-3.24-9.92,0-7.36,4.16-13.4,9.24-13.4,5.6,0,9.52,5.4,9.52,13.08a15.45,15.45,0,0,1-2.2,8.76c-1.84,2.8-4.52,4.44-7.24,4.44A8.73,8.73,0,0,1,204.28,336.75Zm8.68,0.72c0.4-1.12.6-3.68,0.6-7.84,0-7.08-.28-12.48-0.76-13.88s-1.16-1.92-2.24-1.92a2.36,2.36,0,0,0-2.24,1.68c-0.52,1.24-.76,4.76-0.76,10.76a64.91,64.91,0,0,0,.6,10.68c0.36,1.56,1.28,2.48,2.52,2.48a2.61,2.61,0,0,0,2.32-1.95h0Z"/><g id="Page-1-3"><g id="Fill-14-3"><path class="cls-2" d="M86,83.29a94.79,94.79,0,0,1-9.36,15.12C70.31,106.75,67,111.48,67,117.73a8.44,8.44,0,0,0,8,8.72c4,0,6.56-1.44,7.91-6.6,0.55-2.09,1.72-1.68,1.41.6-0.37,2.69-.39,8.55-4.74,13.84h12.8C88,129,88,123.14,87.64,120.45c-0.31-2.28.86-2.69,1.41-.6,1.35,5.16,3.94,6.6,7.91,6.6a8.44,8.44,0,0,0,8-8.72c0-6.24-3.31-11-9.64-19.32A94.59,94.59,0,0,1,86,83.29"/></g></g><g id="Page-1-4"><g id="Fill-14-4"><path class="cls-2" d="M163.67,84.29a94.79,94.79,0,0,1-9.36,15.12c-6.34,8.34-9.64,13.07-9.64,19.32a8.44,8.44,0,0,0,8,8.72c4,0,6.56-1.44,7.91-6.6,0.55-2.09,1.72-1.68,1.41.6-0.37,2.69-.39,8.55-4.74,13.84H170c-4.34-5.29-4.37-11.15-4.74-13.84-0.31-2.28.86-2.69,1.41-.6,1.35,5.16,3.94,6.6,7.91,6.6a8.44,8.44,0,0,0,8-8.72c0-6.24-3.31-11-9.64-19.32a94.6,94.6,0,0,1-9.35-15.12"/></g></g><g id="Page-1-5"><g id="Fill-14-5"><path class="cls-2" d="M86.17,151.12a94.79,94.79,0,0,1-9.36,15.12c-6.34,8.34-9.64,13.07-9.64,19.32a8.44,8.44,0,0,0,8,8.72c4,0,6.56-1.44,7.91-6.6,0.55-2.09,1.72-1.68,1.41.6-0.37,2.69-.39,8.55-4.74,13.84H92.54c-4.34-5.29-4.37-11.15-4.74-13.84-0.31-2.28.86-2.69,1.41-.6,1.35,5.16,3.94,6.6,7.91,6.6a8.44,8.44,0,0,0,8-8.72c0-6.24-3.31-11-9.64-19.32a94.6,94.6,0,0,1-9.35-15.12"/></g></g><g id="Page-1-6"><g id="Fill-14-6"><path class="cls-2" d="M163.84,152.12a94.79,94.79,0,0,1-9.36,15.12c-6.34,8.34-9.64,13.07-9.64,19.32a8.44,8.44,0,0,0,8,8.72c4,0,6.56-1.44,7.91-6.6,0.55-2.09,1.72-1.68,1.41.6-0.37,2.69-.39,8.55-4.74,13.84h12.79c-4.34-5.29-4.37-11.15-4.74-13.84-0.31-2.28.86-2.69,1.41-.6,1.35,5.16,3.94,6.6,7.91,6.6a8.44,8.44,0,0,0,8-8.72c0-6.24-3.31-11-9.64-19.32a94.6,94.6,0,0,1-9.35-15.12"/></g></g><g id="Page-1-7"><g id="Fill-14-7"><path class="cls-2" d="M124,117.29a94.79,94.79,0,0,1-9.36,15.12c-6.34,8.34-9.64,13.07-9.64,19.32a8.44,8.44,0,0,0,8,8.72c4,0,6.56-1.44,7.91-6.6,0.55-2.09,1.72-1.68,1.41.6-0.37,2.69-.39,8.55-4.74,13.84h12.79C126,163,126,157.14,125.64,154.45c-0.31-2.28.86-2.69,1.41-.6,1.35,5.16,3.94,6.6,7.91,6.6a8.44,8.44,0,0,0,8-8.72c0-6.24-3.31-11-9.64-19.32A94.59,94.59,0,0,1,124,117.29"/></g></g><g id="Page-1-8"><g id="Fill-14-8"><path class="cls-2" d="M86.17,223.45a94.79,94.79,0,0,1-9.36,15.12c-6.34,8.34-9.64,13.07-9.64,19.32a8.44,8.44,0,0,0,8,8.72c4,0,6.56-1.44,7.91-6.6,0.55-2.09,1.72-1.68,1.41.6-0.37,2.69-.39,8.55-4.74,13.84H92.54c-4.34-5.29-4.37-11.15-4.74-13.84-0.31-2.28.86-2.69,1.41-.6,1.35,5.16,3.94,6.6,7.91,6.6a8.44,8.44,0,0,0,8-8.72c0-6.24-3.31-11-9.64-19.32a94.6,94.6,0,0,1-9.35-15.12"/></g></g><g id="Page-1-9"><g id="Fill-14-9"><path class="cls-2" d="M124,253.57a94.79,94.79,0,0,1-9.36,15.12C108.31,277,105,281.76,105,288a8.44,8.44,0,0,0,8,8.72c4,0,6.56-1.44,7.91-6.6,0.55-2.09,1.72-1.68,1.41.6-0.37,2.69-.39,8.55-4.74,13.84h12.79c-4.34-5.29-4.37-11.15-4.74-13.84-0.31-2.28.86-2.69,1.41-.6,1.35,5.16,3.94,6.6,7.91,6.6a8.44,8.44,0,0,0,8-8.72c0-6.24-3.31-11-9.64-19.32A94.6,94.6,0,0,1,124,253.57"/></g></g><g id="Page-1-10"><g id="Fill-14-10"><path class="cls-2" d="M125,47.87A94.79,94.79,0,0,1,115.65,63C109.31,71.33,106,76.06,106,82.31A8.44,8.44,0,0,0,114,91c4,0,6.56-1.44,7.91-6.6,0.55-2.09,1.72-1.68,1.41.6-0.37,2.69-.39,8.55-4.74,13.84h12.79C127,93.58,127,87.72,126.64,85c-0.31-2.28.86-2.69,1.41-.6C129.4,89.59,132,91,136,91a8.44,8.44,0,0,0,8-8.72c0-6.24-3.31-11-9.64-19.32A94.6,94.6,0,0,1,125,47.87"/></g></g></g></svg>