<svg id="top_row" data-name="top row" xmlns="http://www.w3.org/2000/svg" viewBox="0 0 250 350"><defs><style>.cls-1{fill:#2b2b2b;}.cls-2,.cls-4{fill:#fff;}.cls-2,.cls-5{stroke:#fff;stroke-miterlimit:10;}.cls-3{isolation:isolate;}.cls-5{fill:none;}</style></defs><title>s-2</title><g id="_2_spades" data-name=" 2 spades"><rect class="cls-1" width="250" height="350" rx="10" ry="10"/><g id="Page-1"><g id="Fill-14"><path class="cls-2" d="M125.43,118.54a94.79,94.79,0,0,1-9.36,15.12c-6.34,8.34-9.64,13.07-9.64,19.32a8.44,8.44,0,0,0,8,8.72c4,0,6.56-1.44,7.91-6.6,0.55-2.09,1.72-1.68,1.41.6-0.37,2.69-.39,8.55-4.74,13.84h12.86c-4.34-5.29-4.37-11.15-4.74-13.84-0.31-2.28.86-2.69,1.41-.6,1.35,5.16,3.94,6.6,7.91,6.6a8.44,8.44,0,0,0,8-8.72c0-6.24-3.31-11-9.64-19.32a94.59,94.59,0,0,1-9.35-15.12"/></g></g><g class="cls-3"><path class="cls-4" d="M13.49,36A14,14,0,0,1,13,33a10.1,10.1,0,0,1,2.12-5.84c0.88-1,1-1.12,4.68-3.24,2.52-1.44,3.56-3.44,3.56-6.76,0-4.16-1.32-6.2-4-6.2a4.85,4.85,0,0,0-4.32,2.72,3.34,3.34,0,0,0-.36,1.84,2.92,2.92,0,0,1,2.36-1.2,3,3,0,0,1,3.28,3.28A3.16,3.16,0,0,1,17,20.92a3.6,3.6,0,0,1-3.6-3.76,7.32,7.32,0,0,1,2-4.84,8.22,8.22,0,0,1,6-2.12c5.08,0,8.68,2.76,8.68,6.72a5.69,5.69,0,0,1-2.08,4.48c-1.24,1-2.64,1.68-5.92,2.64-3,.92-4.68,1.68-5.76,2.6a8.64,8.64,0,0,0-2.88,6c0,0.28,0,.6,0,1.12l0.08-.16c1-2.76,3.76-4.32,7.68-4.32,0.76,0,1.64,0,2.52.12,1.08,0.08,2.2.12,2.64,0.12a4.56,4.56,0,0,0,3.36-1.12,4.88,4.88,0,0,0,.72-2.56l0.32,0c-0.24,4.12-.56,5.92-1.24,7.32a5.31,5.31,0,0,1-5,3.2,6.39,6.39,0,0,1-3-.8,24.63,24.63,0,0,1-2.88-2.44,3.42,3.42,0,0,0-2.2-.84,2.48,2.48,0,0,0-2.72,2.44A11.42,11.42,0,0,0,13.93,36H13.49Z"/></g><path class="cls-5" d="M13.49,36A14,14,0,0,1,13,33a10.1,10.1,0,0,1,2.12-5.84c0.88-1,1-1.12,4.68-3.24,2.52-1.44,3.56-3.44,3.56-6.76,0-4.16-1.32-6.2-4-6.2A4.85,4.85,0,0,0,15,13.68a3.34,3.34,0,0,0-.36,1.84A2.92,2.92,0,0,1,17,14.32a3,3,0,0,1,3.28,3.28,3.16,3.16,0,0,1-3,3.32H17a3.6,3.6,0,0,1-3.6-3.6q0-.08,0-0.16a7.32,7.32,0,0,1,2-4.84,8.22,8.22,0,0,1,6-2.12c5.08,0,8.68,2.76,8.68,6.72A5.69,5.69,0,0,1,28,21.4c-1.24,1-2.64,1.68-5.92,2.64-3,.92-4.68,1.68-5.76,2.6a8.64,8.64,0,0,0-2.88,6v1.12l0.08-.16c1-2.76,3.76-4.32,7.68-4.32a18.58,18.58,0,0,1,2.52.12c1.08,0.08,2.2.12,2.64,0.12a4.56,4.56,0,0,0,3.36-1.12,4.88,4.88,0,0,0,.72-2.56h0.32c-0.24,4.12-.56,5.92-1.24,7.32a5.31,5.31,0,0,1-5,3.2,6.39,6.39,0,0,1-3-.8,24.63,24.63,0,0,1-2.88-2.44,3.42,3.42,0,0,0-2.2-.84,2.48,2.48,0,0,0-2.71,2.23q0,0.11,0,.21A11.42,11.42,0,0,0,13.93,36H13.49Z"/><g id="Page-1-2"><g id="Fill-14-2"><path class="cls-2" d="M126.43,184.15a94.79,94.79,0,0,1-9.36,15.12c-6.34,8.34-9.64,13.07-9.64,19.32a8.44,8.44,0,0,0,8,8.72c4,0,6.56-1.44,7.91-6.6,0.55-2.09,1.72-1.68,1.41.6-0.37,2.69-.39,8.55-4.74,13.84h12.86c-4.34-5.29-4.37-11.15-4.74-13.84-0.31-2.28.86-2.69,1.41-.6,1.35,5.16,3.94,6.6,7.91,6.6a8.44,8.44,0,0,0,8-8.72c0-6.24-3.31-11-9.64-19.32a94.59,94.59,0,0,1-9.35-15.12"/></g></g><g class="cls-3"><path class="cls-4" d="M237.71,315.08a14,14,0,0,1,.44,3,10.1,10.1,0,0,1-2.12,5.84c-0.88,1-1,1.12-4.68,3.24-2.52,1.44-3.56,3.44-3.56,6.76,0,4.16,1.32,6.2,4,6.2a4.85,4.85,0,0,0,4.32-2.72,3.34,3.34,0,0,0,.36-1.84,2.92,2.92,0,0,1-2.36,1.2,3,3,0,0,1-3.28-3.28,3.16,3.16,0,0,1,3.36-3.32,3.6,3.6,0,0,1,3.6,3.76,7.32,7.32,0,0,1-2,4.84,8.22,8.22,0,0,1-6,2.12c-5.08,0-8.68-2.76-8.68-6.72a5.69,5.69,0,0,1,2.08-4.48c1.24-1,2.64-1.68,5.92-2.64,3-.92,4.68-1.68,5.76-2.6a8.64,8.64,0,0,0,2.88-6c0-.28,0-0.6,0-1.12l-0.08.16c-1,2.76-3.76,4.32-7.68,4.32-0.76,0-1.64,0-2.52-.12-1.08-.08-2.2-0.12-2.64-0.12a4.56,4.56,0,0,0-3.36,1.12,4.87,4.87,0,0,0-.72,2.56l-0.32,0c0.24-4.12.56-5.92,1.24-7.32a5.31,5.31,0,0,1,5-3.2,6.4,6.4,0,0,1,3,.8,24.85,24.85,0,0,1,2.88,2.44,3.42,3.42,0,0,0,2.2.84,2.48,2.48,0,0,0,2.72-2.44,11.49,11.49,0,0,0-.12-1.28h0.44Z"/></g><path class="cls-5" d="M237.71,315.08a14,14,0,0,1,.44,3,10.1,10.1,0,0,1-2.12,5.84c-0.88,1-1,1.12-4.68,3.24-2.52,1.44-3.56,3.44-3.56,6.76,0,4.16,1.32,6.2,4,6.2a4.85,4.85,0,0,0,4.32-2.72,3.34,3.34,0,0,0,.36-1.84,2.92,2.92,0,0,1-2.36,1.2,3,3,0,0,1-3.28-3.28,3.16,3.16,0,0,1,3-3.32h0.37a3.6,3.6,0,0,1,3.6,3.6q0,0.08,0,.16a7.32,7.32,0,0,1-2,4.84,8.22,8.22,0,0,1-6,2.12c-5.08,0-8.68-2.76-8.68-6.72a5.69,5.69,0,0,1,2.08-4.48c1.24-1,2.64-1.68,5.92-2.64,3-.92,4.68-1.68,5.76-2.6a8.64,8.64,0,0,0,2.88-6v-1.12l-0.08.16c-1,2.76-3.76,4.32-7.68,4.32a18.58,18.58,0,0,1-2.52-.12c-1.08-.08-2.2-0.12-2.64-0.12a4.56,4.56,0,0,0-3.36,1.12,4.87,4.87,0,0,0-.72,2.56h-0.32c0.24-4.12.56-5.92,1.24-7.32a5.31,5.31,0,0,1,5-3.2,6.4,6.4,0,0,1,3,.8,24.85,24.85,0,0,1,2.88,2.44,3.42,3.42,0,0,0,2.2.84,2.48,2.48,0,0,0,2.71-2.23q0-.11,0-0.21a11.49,11.49,0,0,0-.12-1.28h0.36Z"/></g></svg>