<svg id="top_row" data-name="top row" xmlns="http://www.w3.org/2000/svg" viewBox="0 0 250 350"><defs><style>.cls-1{fill:#2b2b2b;}.cls-2,.cls-4{fill:#fff;}.cls-2,.cls-5{stroke:#fff;stroke-miterlimit:10;}.cls-3{isolation:isolate;}.cls-5{fill:none;}</style></defs><title>s-3</title><g id="_3_spades" data-name=" 3 spades"><rect class="cls-1" width="250" height="350" rx="10" ry="10"/><g id="Page-1"><g id="Fill-14"><path class="cls-2" d="M124,154.24a94.79,94.79,0,0,1-9.36,15.12c-6.34,8.34-9.64,13.07-9.64,19.32a8.44,8.44,0,0,0,8,8.72c4,0,6.56-1.44,7.91-6.6,0.55-2.09,1.72-1.68,1.41.6-0.37,2.69-.39,8.55-4.74,13.84h12.79C126,200,126,194.09,125.64,191.4c-0.31-2.28.86-2.69,1.41-.6,1.35,5.16,3.94,6.6,7.91,6.6a8.44,8.44,0,0,0,8-8.72c0-6.24-3.31-11-9.64-19.32A94.59,94.59,0,0,1,124,154.24"/></g></g><g class="cls-3"><path class="cls-4" d="M19.09,21.72c2,0,2.84-1.12,2.84-3.92,0-5.2-.76-6.88-3.12-6.88A3.7,3.7,0,0,0,15,13.2a3.58,3.58,0,0,1,1.36-.32,3,3,0,0,1,3,3.24,3.08,3.08,0,0,1-3.2,3.24c-1.92,0-3.2-1.4-3.2-3.52,0-3.24,3-5.48,7.28-5.48,4.6,0,7.84,2.4,7.84,5.8a4.83,4.83,0,0,1-1.28,3.28c-0.88,1-1.8,1.52-3.92,2.32,2.8,0.84,4,1.36,5.2,2.52a5.9,5.9,0,0,1,1.88,4.28c0,4.32-4.6,7.88-10.12,7.88-4.8,0-8.48-2.68-8.48-6.24,0-2.52,1.6-4.36,3.8-4.36a3.1,3.1,0,0,1,3.4,3.36,3.19,3.19,0,0,1-1,2.72,3.45,3.45,0,0,1-2.2.84A3.8,3.8,0,0,1,13.21,32a4,4,0,0,0,1.68,2.64,5.7,5.7,0,0,0,3.92,1.24c1.8,0,2.56-.36,3.4-1.6,0.72-1,.88-2,0.88-5.36,0-4.88-1.12-6.72-4.16-6.72H17.25l0-.52h1.8Z"/></g><path class="cls-5" d="M19.09,21.72c2,0,2.84-1.12,2.84-3.92,0-5.2-.76-6.88-3.12-6.88A3.7,3.7,0,0,0,15,13.2a3.58,3.58,0,0,1,1.36-.32,3,3,0,0,1,3,3q0,0.12,0,.25a3.08,3.08,0,0,1-2.91,3.24H16.16c-1.92,0-3.2-1.4-3.2-3.52,0-3.24,3-5.48,7.28-5.48,4.6,0,7.84,2.4,7.84,5.8a4.83,4.83,0,0,1-1.28,3.28c-0.88,1-1.8,1.52-3.92,2.32,2.8,0.84,4,1.36,5.2,2.52A5.9,5.9,0,0,1,30,28.56c0,4.32-4.6,7.88-10.12,7.88-4.8,0-8.48-2.68-8.48-6.24,0-2.52,1.6-4.36,3.8-4.36a3.1,3.1,0,0,1,3.4,3.36,3.19,3.19,0,0,1-1,2.72,3.45,3.45,0,0,1-2.2.84A3.8,3.8,0,0,1,13.21,32a4,4,0,0,0,1.68,2.64,5.7,5.7,0,0,0,3.92,1.24c1.8,0,2.56-.36,3.4-1.6,0.72-1,.88-2,0.88-5.36,0-4.88-1.12-6.72-4.16-6.72H17.25V21.68H19Z"/><g id="Page-1-2"><g id="Fill-14-2"><path class="cls-2" d="M124,220a94.79,94.79,0,0,1-9.36,15.12c-6.34,8.34-9.64,13.07-9.64,19.32a8.44,8.44,0,0,0,8,8.72c4,0,6.56-1.44,7.91-6.6,0.55-2.09,1.72-1.68,1.41.6-0.37,2.69-.39,8.55-4.74,13.84h12.79c-4.34-5.29-4.37-11.15-4.74-13.84-0.31-2.28.86-2.69,1.41-.6,1.35,5.16,3.94,6.6,7.91,6.6a8.44,8.44,0,0,0,8-8.72c0-6.24-3.31-11-9.64-19.32A94.6,94.6,0,0,1,124,220"/></g></g><g class="cls-3"><path class="cls-4" d="M229.24,329.36c-2,0-2.84,1.12-2.84,3.92,0,5.2.76,6.88,3.12,6.88a3.7,3.7,0,0,0,3.8-2.28,3.58,3.58,0,0,1-1.36.32,3.25,3.25,0,0,1,.24-6.48c1.92,0,3.2,1.4,3.2,3.52,0,3.24-3,5.48-7.28,5.48-4.6,0-7.84-2.4-7.84-5.8a4.83,4.83,0,0,1,1.28-3.28c0.88-1,1.8-1.52,3.92-2.32-2.8-.84-4-1.36-5.2-2.52a5.9,5.9,0,0,1-1.88-4.28c0-4.32,4.6-7.88,10.12-7.88,4.8,0,8.48,2.68,8.48,6.24,0,2.52-1.6,4.36-3.8,4.36a3.1,3.1,0,0,1-3.4-3.36,3.19,3.19,0,0,1,1-2.72,3.45,3.45,0,0,1,2.2-.84,3.8,3.8,0,0,1,2.12.72,4,4,0,0,0-1.68-2.64,5.7,5.7,0,0,0-3.92-1.24c-1.8,0-2.56.36-3.4,1.6-0.72,1-.88,2-0.88,5.36,0,4.88,1.12,6.72,4.16,6.72h1.68l0,0.52h-1.8Z"/></g><path class="cls-5" d="M229.24,329.36c-2,0-2.84,1.12-2.84,3.92,0,5.2.76,6.88,3.12,6.88a3.7,3.7,0,0,0,3.8-2.28,3.58,3.58,0,0,1-1.36.32,3.25,3.25,0,0,1,.24-6.48c1.92,0,3.2,1.4,3.2,3.52,0,3.24-3,5.48-7.28,5.48-4.6,0-7.84-2.4-7.84-5.8a4.83,4.83,0,0,1,1.28-3.28c0.88-1,1.8-1.52,3.92-2.32-2.8-.84-4-1.36-5.2-2.52a5.9,5.9,0,0,1-1.88-4.28c0-4.32,4.6-7.88,10.12-7.88,4.8,0,8.48,2.68,8.48,6.24,0,2.52-1.6,4.36-3.8,4.36a3.1,3.1,0,0,1-3.4-3.36,3.19,3.19,0,0,1,1-2.72,3.45,3.45,0,0,1,2.2-.84,3.8,3.8,0,0,1,2.12.72,4,4,0,0,0-1.68-2.64,5.7,5.7,0,0,0-3.92-1.24c-1.8,0-2.56.36-3.4,1.6-0.72,1-.88,2-0.88,5.36,0,4.88,1.12,6.72,4.16,6.72h1.68v0.52h-1.84Z"/><g id="Page-1-3"><g id="Fill-14-3"><path class="cls-2" d="M124,84.24a94.79,94.79,0,0,1-9.36,15.12c-6.34,8.34-9.64,13.07-9.64,19.32a8.44,8.44,0,0,0,8,8.72c4,0,6.56-1.44,7.91-6.6,0.55-2.09,1.72-1.68,1.41.6-0.37,2.69-.39,8.55-4.74,13.84h12.79C126,130,126,124.09,125.64,121.4c-0.31-2.28.86-2.69,1.41-.6,1.35,5.16,3.94,6.6,7.91,6.6a8.44,8.44,0,0,0,8-8.72c0-6.24-3.31-11-9.64-19.32A94.59,94.59,0,0,1,124,84.24"/></g></g></g></svg>