<svg id="top_row" data-name="top row" xmlns="http://www.w3.org/2000/svg" viewBox="0 0 250 350"><defs><style>.cls-1{fill:#2b2b2b;}.cls-2,.cls-4{fill:#fff;}.cls-2,.cls-5{stroke:#fff;stroke-miterlimit:10;}.cls-3{isolation:isolate;}.cls-5{fill:none;}</style></defs><title>s-4</title><g id="_4_spades" data-name=" 4 spades"><rect class="cls-1" width="250" height="350" rx="10" ry="10"/><g id="Page-1"><g id="Fill-14"><path class="cls-2" d="M154.67,184.95a94.79,94.79,0,0,1-9.36,15.12c-6.34,8.34-9.64,13.07-9.64,19.32a8.44,8.44,0,0,0,8,8.72c4,0,6.56-1.44,7.91-6.6,0.55-2.09,1.72-1.68,1.41.6-0.37,2.69-.39,8.55-4.74,13.84H161c-4.34-5.29-4.37-11.15-4.74-13.84-0.31-2.28.86-2.69,1.41-.6,1.35,5.16,3.94,6.6,7.91,6.6a8.44,8.44,0,0,0,8-8.72c0-6.24-3.31-11-9.64-19.32a94.6,94.6,0,0,1-9.35-15.12"/></g></g><g class="cls-3"><path class="cls-4" d="M20.29,10.64h5.24V27.12h1.76c1,0,1.52-.52,2-2h0.44l-0.8,3.32h-3.4V33c-0.08,2.2.12,2.48,1.76,2.6h1.08V36H15.45V35.56h1.68c1.48-.16,1.68-0.52,1.72-2.8V28.48H10ZM18.85,27.12V14L11.33,27.12h7.52Z"/></g><path class="cls-5" d="M20.29,10.64h5.24V27.12h1.76c1,0,1.52-.52,2-2h0.44l-0.8,3.32h-3.4V33c-0.08,2.2.12,2.48,1.76,2.6h1.08V36H15.45V35.56h1.68c1.48-.16,1.68-0.52,1.72-2.8V28.48H10ZM18.85,27.12V14L11.33,27.12h7.52Z"/><g id="Page-1-2"><g id="Fill-14-2"><path class="cls-2" d="M95,184.95a94.79,94.79,0,0,1-9.36,15.12C79.3,208.41,76,213.14,76,219.39a8.44,8.44,0,0,0,8,8.72c4,0,6.56-1.44,7.91-6.6,0.55-2.09,1.72-1.68,1.41.6-0.37,2.69-.39,8.55-4.74,13.84h12.79C97,230.66,97,224.8,96.63,222.11c-0.31-2.28.86-2.69,1.41-.6,1.35,5.16,3.94,6.6,7.91,6.6a8.44,8.44,0,0,0,8-8.72c0-6.24-3.31-11-9.64-19.32A94.6,94.6,0,0,1,95,184.95"/></g></g><g class="cls-3"><path class="cls-4" d="M228,340.43H222.8V324H221c-1,0-1.52.52-2,2H218.6l0.8-3.32h3.4v-4.48c0.08-2.2-.12-2.48-1.76-2.6H220V315h12.92v0.48H231.2c-1.48.16-1.68,0.52-1.72,2.8v4.28h8.84ZM229.48,324v13.12L237,324h-7.52Z"/></g><path class="cls-5" d="M228,340.43h-5.2V324H221c-1,0-1.52.52-2,2h-0.4l0.8-3.32h3.4V318.2c0.08-2.2-.12-2.48-1.76-2.6h-1V315h12.92v0.48H231.2c-1.48.16-1.68,0.52-1.72,2.8v4.28h8.84ZM229.48,324v13.12L237,324h-7.52Z"/><g id="Page-1-3"><g id="Fill-14-3"><path class="cls-2" d="M95,117.29a94.79,94.79,0,0,1-9.36,15.12C79.3,140.75,76,145.48,76,151.73a8.44,8.44,0,0,0,8,8.72c4,0,6.56-1.44,7.91-6.6,0.55-2.09,1.72-1.68,1.41.6-0.37,2.69-.39,8.55-4.74,13.84h12.79C97,163,97,157.14,96.63,154.45c-0.31-2.28.86-2.69,1.41-.6,1.35,5.16,3.94,6.6,7.91,6.6a8.44,8.44,0,0,0,8-8.72c0-6.24-3.31-11-9.64-19.32A94.6,94.6,0,0,1,95,117.29"/></g></g><g id="Page-1-4"><g id="Fill-14-4"><path class="cls-2" d="M154.67,117.29a94.79,94.79,0,0,1-9.36,15.12c-6.34,8.34-9.64,13.07-9.64,19.32a8.44,8.44,0,0,0,8,8.72c4,0,6.56-1.44,7.91-6.6,0.55-2.09,1.72-1.68,1.41.6-0.37,2.69-.39,8.55-4.74,13.84H161c-4.34-5.29-4.37-11.15-4.74-13.84-0.31-2.28.86-2.69,1.41-.6,1.35,5.16,3.94,6.6,7.91,6.6a8.44,8.44,0,0,0,8-8.72c0-6.24-3.31-11-9.64-19.32a94.6,94.6,0,0,1-9.35-15.12"/></g></g></g></svg>