<svg id="top_row" data-name="top row" xmlns="http://www.w3.org/2000/svg" viewBox="0 0 250 350"><defs><style>.cls-1{fill:#2b2b2b;}.cls-2,.cls-4{fill:#fff;}.cls-2,.cls-5{stroke:#fff;stroke-miterlimit:10;}.cls-3{isolation:isolate;}.cls-5{fill:none;}</style></defs><title>s-5</title><g id="_5_spades" data-name=" 5 spades"><rect class="cls-1" width="250" height="350" rx="10" ry="10"/><g id="Page-1"><g id="Fill-14"><path class="cls-2" d="M163.67,185a94.79,94.79,0,0,1-9.36,15.12c-6.34,8.34-9.64,13.07-9.64,19.32a8.44,8.44,0,0,0,8,8.72c4,0,6.56-1.44,7.91-6.6,0.55-2.09,1.72-1.68,1.41.6-0.37,2.69-.39,8.55-4.74,13.84H170c-4.34-5.29-4.37-11.15-4.74-13.84-0.31-2.28.86-2.69,1.41-.6,1.35,5.16,3.94,6.6,7.91,6.6a8.44,8.44,0,0,0,8-8.72c0-6.24-3.31-11-9.64-19.32A94.6,94.6,0,0,1,163.63,185"/></g></g><g class="cls-3"><path class="cls-4" d="M27.89,11c-0.72,3.76-3.48,5.52-8.64,5.52a27,27,0,0,1-4-.28C15,17.2,15,17.28,14.65,19s-0.48,2.2-.92,3.8a6.1,6.1,0,0,1,2.44-2,10.75,10.75,0,0,1,4.32-.92c5,0,9,3.52,9,7.84,0,5.16-4.16,8.8-10.12,8.8-4.76,0-8-2.6-8-6.32,0-2.36,1.52-4.12,3.6-4.12a3.4,3.4,0,0,1,3.44,3.48,3.16,3.16,0,0,1-3.2,3.32,3.41,3.41,0,0,1-2.52-1c0.24,2.64,2.44,4.2,5.8,4.2,1.64,0,2.44-.4,3.08-1.52a13.75,13.75,0,0,0,1-6c0-3-.28-4.6-1-6a3.75,3.75,0,0,0-3.28-1.76c-2.08,0-3.56,1-4.92,3.52H13a76.57,76.57,0,0,0,1.76-7.76l0.52-3.32c0-.24.24-1.32,0.4-2.44a29.17,29.17,0,0,0,6.76.6,18.38,18.38,0,0,0,5.2-.56Z"/></g><path class="cls-5" d="M27.89,11c-0.72,3.76-3.48,5.52-8.64,5.52a27,27,0,0,1-4-.28c-0.25,1-.25,1-0.6,2.76s-0.48,2.2-.92,3.8a6.1,6.1,0,0,1,2.44-2,10.75,10.75,0,0,1,4.32-.92c5,0,9,3.52,9,7.84,0,5.16-4.16,8.8-10.12,8.8-4.76,0-8-2.6-8-6.32,0-2.36,1.52-4.12,3.6-4.12a3.4,3.4,0,0,1,3.44,3.36s0,0.08,0,.12a3.16,3.16,0,0,1-3,3.32h-0.2a3.41,3.41,0,0,1-2.52-1c0.24,2.64,2.44,4.2,5.8,4.2,1.64,0,2.44-.4,3.08-1.52a13.75,13.75,0,0,0,1-6c0-3-.28-4.6-1-6a3.75,3.75,0,0,0-3.28-1.76c-2.08,0-3.56,1-4.92,3.52H13a76.57,76.57,0,0,0,1.76-7.76l0.52-3.32c0-.24.24-1.32,0.4-2.44a29.17,29.17,0,0,0,6.76.6,18.38,18.38,0,0,0,5.2-.56Z"/><g id="Page-1-2"><g id="Fill-14-2"><path class="cls-2" d="M86,185a94.79,94.79,0,0,1-9.36,15.12c-6.33,8.29-9.64,13-9.64,19.27a8.44,8.44,0,0,0,8,8.72c4,0,6.56-1.44,7.91-6.6,0.55-2.09,1.72-1.68,1.41.6-0.37,2.69-.39,8.55-4.74,13.84h12.8C88,230.66,88,224.8,87.64,222.11c-0.31-2.28.86-2.69,1.41-.6,1.35,5.16,3.94,6.6,7.91,6.6a8.44,8.44,0,0,0,8-8.72c0-6.24-3.31-11-9.64-19.32A94.6,94.6,0,0,1,86,185"/></g></g><g class="cls-3"><path class="cls-4" d="M220.44,340.12c0.72-3.76,3.48-5.52,8.64-5.52a27,27,0,0,1,4,.28c0.28-1,.28-1.08.64-2.8s0.48-2.2.92-3.8a6.1,6.1,0,0,1-2.44,2,10.75,10.75,0,0,1-4.32.92c-5,0-9-3.52-9-7.84,0-5.16,4.16-8.8,10.12-8.8,4.76,0,8,2.6,8,6.32,0,2.36-1.52,4.12-3.6,4.12a3.4,3.4,0,0,1-3.44-3.48,3.16,3.16,0,0,1,3.2-3.32,3.41,3.41,0,0,1,2.52,1c-0.24-2.64-2.44-4.2-5.8-4.2-1.64,0-2.44.4-3.08,1.52a13.76,13.76,0,0,0-1,6c0,3,.28,4.6,1,6a3.75,3.75,0,0,0,3.28,1.76c2.08,0,3.56-1,4.92-3.52h0.32a77,77,0,0,0-1.76,7.76L233,337.83c0,0.24-.24,1.32-0.4,2.44a29.16,29.16,0,0,0-6.76-.6,18.38,18.38,0,0,0-5.2.56Z"/></g><path class="cls-5" d="M220.44,340.12c0.72-3.76,3.48-5.52,8.64-5.52a27,27,0,0,1,4,.28c0.28-1,.28-1.08.64-2.8s0.48-2.2.92-3.8a6.1,6.1,0,0,1-2.44,2,10.75,10.75,0,0,1-4.32.92c-5,0-9-3.52-9-7.84,0-5.16,4.16-8.8,10.12-8.8,4.76,0,8,2.6,8,6.32,0,2.36-1.52,4.12-3.6,4.12a3.4,3.4,0,0,1-3.44-3.36s0-.08,0-0.12a3.16,3.16,0,0,1,3-3.32h0.2a3.41,3.41,0,0,1,2.52,1c-0.24-2.64-2.44-4.2-5.8-4.2-1.64,0-2.44.4-3.08,1.52a13.76,13.76,0,0,0-1,6c0,3,.28,4.6,1,6a3.75,3.75,0,0,0,3.28,1.76c2.08,0,3.56-1,4.92-3.52h0.32a77,77,0,0,0-1.76,7.76L233,337.83c0,0.24-.24,1.32-0.4,2.44a29.16,29.16,0,0,0-6.76-.6,18.38,18.38,0,0,0-5.2.56Z"/><g id="Page-1-3"><g id="Fill-14-3"><path class="cls-2" d="M86,117.24a94.79,94.79,0,0,1-9.36,15.12C70.31,140.7,67,145.43,67,151.68a8.44,8.44,0,0,0,8,8.72c4,0,6.56-1.44,7.91-6.6,0.55-2.09,1.72-1.68,1.41.6-0.37,2.69-.39,8.55-4.74,13.84h12.8C88,163,88,157.09,87.64,154.4c-0.31-2.28.86-2.69,1.41-.6C90.4,159,93,160.4,97,160.4a8.44,8.44,0,0,0,8-8.72c0-6.24-3.31-11-9.64-19.32A94.6,94.6,0,0,1,86,117.24"/></g></g><g id="Page-1-4"><g id="Fill-14-4"><path class="cls-2" d="M163.67,117.24a94.79,94.79,0,0,1-9.36,15.12c-6.34,8.34-9.64,13.07-9.64,19.32a8.44,8.44,0,0,0,8,8.72c4,0,6.56-1.44,7.91-6.6,0.55-2.09,1.72-1.68,1.41.6-0.37,2.69-.39,8.55-4.74,13.84H170c-4.34-5.29-4.37-11.15-4.74-13.84-0.31-2.28.86-2.69,1.41-.6,1.35,5.16,3.94,6.6,7.91,6.6a8.44,8.44,0,0,0,8-8.72c0-6.24-3.31-11-9.64-19.32a94.6,94.6,0,0,1-9.35-15.12"/></g></g><g id="Page-1-5"><g id="Fill-14-5"><path class="cls-2" d="M125,149.51a94.79,94.79,0,0,1-9.36,15.12C109.31,173,106,177.7,106,184a8.44,8.44,0,0,0,8,8.72c4,0,6.56-1.44,7.91-6.6,0.55-2.09,1.72-1.68,1.41.6-0.37,2.69-.39,8.55-4.74,13.84h12.79c-4.34-5.29-4.37-11.15-4.74-13.84-0.31-2.28.86-2.69,1.41-.6,1.35,5.16,3.94,6.6,7.91,6.6a8.44,8.44,0,0,0,8-8.72c0-6.24-3.31-11-9.64-19.32A94.6,94.6,0,0,1,125,149.51"/></g></g></g></svg>