<svg id="top_row" data-name="top row" xmlns="http://www.w3.org/2000/svg" viewBox="0 0 250 350"><defs><style>.cls-1{fill:#2b2b2b;}.cls-2,.cls-4{fill:#fff;}.cls-2,.cls-5{stroke:#fff;stroke-miterlimit:10;}.cls-3{isolation:isolate;}.cls-5{fill:none;}</style></defs><title>s-6</title><g id="_6_spades" data-name=" 6 spades"><rect class="cls-1" width="250" height="350" rx="10" ry="10"/><g id="Page-1"><g id="Fill-14"><path class="cls-2" d="M154.67,218.95a94.8,94.8,0,0,1-9.36,15.12c-6.34,8.34-9.64,13.07-9.64,19.32a8.44,8.44,0,0,0,8,8.72c4,0,6.56-1.44,7.91-6.6,0.55-2.09,1.72-1.68,1.41.6-0.37,2.69-.39,8.55-4.74,13.84H161c-4.34-5.29-4.37-11.15-4.74-13.84-0.31-2.28.86-2.69,1.41-.6,1.35,5.16,3.94,6.6,7.91,6.6a8.44,8.44,0,0,0,8-8.72c0-6.24-3.31-11-9.64-19.32a94.58,94.58,0,0,1-9.35-15.12"/></g></g><g class="cls-3"><path class="cls-4" d="M22.28,8.35a3.18,3.18,0,0,0-3,1.72c-1.28,2.4-1.56,4.08-1.56,9.72,0,0.2,0,1.28,0,2.24a4.8,4.8,0,0,1,1.2-2.2,4,4,0,0,1,3.64-1.6,6.81,6.81,0,0,1,7.12,7,8.75,8.75,0,0,1-8.48,9c-5.6,0-9.68-5.24-9.68-12.36,0-7.88,4.76-13.8,11-13.8,3.6,0,6.16,2,6.16,4.84a3.39,3.39,0,0,1-3.4,3.56,3.07,3.07,0,0,1-3.12-3.2,3.62,3.62,0,0,1,1.16-2.68,2.59,2.59,0,0,1,1.92-.72A3.16,3.16,0,0,0,22.28,8.35ZM17.92,25.19a23.06,23.06,0,0,0,1,6.92,2.27,2.27,0,0,0,2.28,1.6,2.19,2.19,0,0,0,2.12-1.2,30.22,30.22,0,0,0,.6-6.92,16,16,0,0,0-1.08-5.92,1.68,1.68,0,0,0-1.48-.88C19.24,18.79,17.92,21.23,17.92,25.19Z"/></g><path class="cls-5" d="M22.28,8.35a3.18,3.18,0,0,0-3,1.72c-1.28,2.4-1.6,4.08-1.6,9.7V22a4.8,4.8,0,0,1,1.2-2.2,4,4,0,0,1,3.64-1.6,6.81,6.81,0,0,1,7.12,6.49q0,0.25,0,.51a8.75,8.75,0,0,1-8.48,9c-5.6,0-9.68-5.24-9.68-12.36C11.48,14,16.24,8,22.48,8c3.6,0,6.16,2,6.16,4.84a3.39,3.39,0,0,1-3.22,3.56H25.24a3.07,3.07,0,0,1-3.12-3q0-.09,0-0.18a3.62,3.62,0,0,1,1.16-2.68,2.59,2.59,0,0,1,2-.8A3.16,3.16,0,0,0,22.28,8.35ZM17.92,25.19a23.06,23.06,0,0,0,1,6.92,2.27,2.27,0,0,0,2.28,1.6,2.19,2.19,0,0,0,2.12-1.2,30.22,30.22,0,0,0,.6-6.92,16,16,0,0,0-1.08-5.92,1.68,1.68,0,0,0-1.48-.9C19.24,18.77,17.92,21.23,17.92,25.19Z"/><g id="Page-1-2"><g id="Fill-14-2"><path class="cls-2" d="M95,218.95a94.8,94.8,0,0,1-9.36,15.12C79.3,242.41,76,247.14,76,253.39a8.44,8.44,0,0,0,8,8.72c4,0,6.56-1.44,7.91-6.6,0.55-2.09,1.72-1.68,1.41.6-0.37,2.69-.39,8.55-4.74,13.84h12.83c-4.34-5.29-4.41-11.18-4.74-13.84-0.31-2.28.86-2.69,1.41-.6,1.35,5.16,3.94,6.6,7.91,6.6a8.44,8.44,0,0,0,8-8.72c0-6.24-3.31-11-9.64-19.32A94.58,94.58,0,0,1,95,218.95"/></g></g><g class="cls-3"><path class="cls-4" d="M226.08,337.39a3.18,3.18,0,0,0,3-1.72c1.28-2.4,1.56-4.08,1.56-9.72,0-.2,0-1.28,0-2.24a4.81,4.81,0,0,1-1.2,2.2,4,4,0,0,1-3.64,1.6,6.81,6.81,0,0,1-7.12-7,8.75,8.75,0,0,1,8.48-9c5.6,0,9.68,5.24,9.68,12.36,0,7.88-4.76,13.8-11,13.8-3.6,0-6.16-2-6.16-4.84a3.39,3.39,0,0,1,3.4-3.56,3.07,3.07,0,0,1,3.12,3.2,3.62,3.62,0,0,1-1.16,2.68,2.58,2.58,0,0,1-1.92.72A3.16,3.16,0,0,0,226.08,337.39Zm4.36-16.84a23,23,0,0,0-1-6.92,2.27,2.27,0,0,0-2.28-1.6,2.19,2.19,0,0,0-2.12,1.2,30.21,30.21,0,0,0-.6,6.92,16,16,0,0,0,1.08,5.92A1.68,1.68,0,0,0,227,327C229.12,327,230.44,324.52,230.44,320.56Z"/></g><path class="cls-5" d="M226.08,337.4a3.18,3.18,0,0,0,3-1.72c1.28-2.4,1.56-4.08,1.56-9.72v-2.24a4.81,4.81,0,0,1-1.2,2.2,4,4,0,0,1-3.64,1.6,6.81,6.81,0,0,1-7.12-6.49q0-.25,0-0.51a8.75,8.75,0,0,1,8.48-9c5.6,0,9.68,5.24,9.68,12.36,0,7.88-4.76,13.8-11,13.8-3.6,0-6.16-2-6.16-4.84a3.39,3.39,0,0,1,3.22-3.56h0.18a3.07,3.07,0,0,1,3.12,3q0,0.09,0,.18a3.62,3.62,0,0,1-1.16,2.68,2.58,2.58,0,0,1-1.92.72A3.16,3.16,0,0,0,226.08,337.4Zm4.36-16.84a23,23,0,0,0-1-6.92,2.27,2.27,0,0,0-2.28-1.6,2.19,2.19,0,0,0-2.12,1.2,30.21,30.21,0,0,0-.6,6.92,16,16,0,0,0,1.08,5.92A1.68,1.68,0,0,0,227,327C229.12,327,230.44,324.52,230.44,320.56Z"/><g id="Page-1-3"><g id="Fill-14-3"><path class="cls-2" d="M95,83.29a94.8,94.8,0,0,1-9.36,15.12C79.3,106.77,76,111.48,76,117.77a8.44,8.44,0,0,0,8,8.72c4,0,6.56-1.44,7.91-6.6,0.55-2.09,1.72-1.68,1.41.6-0.37,2.69-.39,8.55-4.74,13.84h12.83C97.07,129,97,123.18,96.67,120.49c-0.31-2.28.86-2.69,1.41-.6,1.35,5.16,3.94,6.6,7.91,6.6a8.44,8.44,0,0,0,8-8.72c0-6.24-3.31-11-9.64-19.32A94.58,94.58,0,0,1,95,83.29"/></g></g><g id="Page-1-4"><g id="Fill-14-4"><path class="cls-2" d="M154.67,83.29a94.8,94.8,0,0,1-9.36,15.12c-6.31,8.36-9.64,13.07-9.64,19.36a8.44,8.44,0,0,0,8,8.72c4,0,6.56-1.44,7.91-6.6,0.55-2.09,1.72-1.68,1.41.6-0.37,2.69-.39,8.55-4.74,13.84H161c-4.34-5.29-4.37-11.15-4.74-13.84-0.31-2.28.86-2.69,1.41-.6,1.35,5.16,3.94,6.6,7.91,6.6a8.44,8.44,0,0,0,8-8.72c0-6.24-3.31-11-9.64-19.32a94.58,94.58,0,0,1-9.35-15.12"/></g></g><g id="Page-1-5"><g id="Fill-14-5"><path class="cls-2" d="M95.17,151.12a94.8,94.8,0,0,1-9.36,15.12c-6.34,8.34-9.64,13.07-9.64,19.32a8.44,8.44,0,0,0,8,8.72c4,0,6.56-1.44,7.91-6.6,0.55-2.09,1.72-1.68,1.41.6-0.37,2.69-.39,8.55-4.74,13.84h12.79c-4.34-5.29-4.37-11.15-4.74-13.84-0.31-2.28.86-2.69,1.41-.6,1.35,5.16,3.94,6.6,7.91,6.6a8.44,8.44,0,0,0,8-8.72c0-6.24-3.31-11-9.64-19.32a94.58,94.58,0,0,1-9.35-15.12"/></g></g><g id="Page-1-6"><g id="Fill-14-6"><path class="cls-2" d="M154.84,151.12a94.8,94.8,0,0,1-9.36,15.12c-6.34,8.34-9.64,13.07-9.64,19.32a8.44,8.44,0,0,0,8,8.72c4,0,6.56-1.44,7.91-6.6,0.55-2.09,1.72-1.68,1.41.6-0.37,2.69-.39,8.55-4.74,13.84h12.79c-4.34-5.29-4.37-11.15-4.74-13.84-0.31-2.28.86-2.69,1.41-.6,1.35,5.16,3.94,6.6,7.91,6.6a8.44,8.44,0,0,0,8-8.72c0-6.24-3.31-11-9.64-19.32a94.58,94.58,0,0,1-9.35-15.12"/></g></g></g></svg>