<svg id="bottom_row" data-name="bottom row" xmlns="http://www.w3.org/2000/svg" viewBox="0 0 250 350"><defs><style>.cls-1{fill:#2b2b2b;}.cls-2,.cls-4{fill:#fff;}.cls-2,.cls-5{stroke:#fff;stroke-miterlimit:10;}.cls-3{isolation:isolate;}.cls-5{fill:none;}</style></defs><title>s-7</title><g id="_7_spades" data-name=" 7 spades"><rect class="cls-1" width="250" height="350" rx="10" ry="10"/><g id="Page-1"><g id="Fill-14"><path class="cls-2" d="M124,150.55a94.79,94.79,0,0,1-9.36,15.12C108.31,174,105,178.74,105,185a8.44,8.44,0,0,0,8,8.72c4,0,6.56-1.44,7.91-6.6,0.55-2.09,1.72-1.68,1.41.6-0.37,2.69-.39,8.55-4.74,13.84h12.79c-4.34-5.29-4.37-11.15-4.74-13.84-0.31-2.28.86-2.69,1.41-.6,1.35,5.16,3.94,6.6,7.91,6.6a8.44,8.44,0,0,0,8-8.72c0-6.24-3.31-11-9.64-19.32A94.59,94.59,0,0,1,124,150.55"/></g></g><g class="cls-3"><path class="cls-4" d="M14.17,11.68c1.84-2,3.16-2.76,5.16-2.76,1,0,1,0,5.68,1.52a5.15,5.15,0,0,0,1.6.24,2.84,2.84,0,0,0,2.24-.84l0.24,0.08c-0.36,4.36-.92,5.8-3.88,9.76S21.45,26,21.45,29.92A15.52,15.52,0,0,0,22.29,35H13.81c0-.76,0-1,0-1.64,0-4.36,2.16-7.76,7.84-12.2s6.08-5,6.84-9.48a8.25,8.25,0,0,1-2.56,2.76,6.39,6.39,0,0,1-3.64,1.12c-0.92,0-.92,0-5-1a3.4,3.4,0,0,0-.92-0.12,2.83,2.83,0,0,0-2.2,1,6,6,0,0,0-.92,2.88l-0.4,0a59.47,59.47,0,0,0,1-8.4h0.32v1.64Z"/></g><path class="cls-5" d="M14.17,11.68c1.84-2,3.16-2.76,5.16-2.76,1,0,1,0,5.68,1.52a5.15,5.15,0,0,0,1.6.24,2.84,2.84,0,0,0,2.24-.84l0.24,0.08c-0.36,4.36-.92,5.8-3.88,9.76S21.45,26,21.45,29.92A15.52,15.52,0,0,0,22.29,35H13.81V33.36c0-4.36,2.16-7.76,7.84-12.2s6.08-5,6.84-9.48a8.25,8.25,0,0,1-2.56,2.76,6.39,6.39,0,0,1-3.64,1.12c-0.92,0-.92,0-5-1a3.4,3.4,0,0,0-.92-0.12,2.83,2.83,0,0,0-2.2,1,6,6,0,0,0-.92,2.88h-0.4a59.47,59.47,0,0,0,1-8.4h0.32v1.76Z"/><g id="Page-1-2"><g id="Fill-14-2"><path class="cls-2" d="M124,221a94.79,94.79,0,0,1-9.36,15.12c-6.34,8.34-9.64,13.07-9.64,19.32a8.44,8.44,0,0,0,8,8.72c4,0,6.56-1.44,7.91-6.6,0.55-2.09,1.72-1.68,1.41.6-0.37,2.69-.39,8.55-4.74,13.84h12.79c-4.34-5.29-4.37-11.15-4.74-13.84-0.31-2.28.86-2.69,1.41-.6,1.35,5.16,3.94,6.6,7.91,6.6a8.44,8.44,0,0,0,8-8.72c0-6.24-3.31-11-9.64-19.32A94.59,94.59,0,0,1,124,221"/></g></g><g class="cls-3"><path class="cls-4" d="M234.16,337.4c-1.84,2-3.16,2.76-5.16,2.76-1,0-1,0-5.68-1.52a5.15,5.15,0,0,0-1.6-.24,2.84,2.84,0,0,0-2.24.84l-0.24-.08c0.36-4.36.92-5.8,3.88-9.76s3.76-6.36,3.76-10.24A15.53,15.53,0,0,0,226,314h8.48c0,0.76,0,1,0,1.64,0,4.36-2.16,7.76-7.84,12.2s-6.08,5-6.84,9.48a8.25,8.25,0,0,1,2.56-2.76,6.39,6.39,0,0,1,3.64-1.12c0.92,0,.92,0,5,1a3.4,3.4,0,0,0,.92.12,2.83,2.83,0,0,0,2.2-1,6,6,0,0,0,.92-2.88l0.4,0a59.54,59.54,0,0,0-1,8.4h-0.32V337.4Z"/></g><path class="cls-5" d="M234.16,337.4c-1.84,2-3.16,2.76-5.16,2.76-1,0-1,0-5.68-1.52a5.15,5.15,0,0,0-1.6-.24,2.84,2.84,0,0,0-2.24.84l-0.24-.08c0.36-4.36.92-5.8,3.88-9.76s3.76-6.36,3.76-10.24A15.53,15.53,0,0,0,226,314h8.48v1.64c0,4.36-2.16,7.76-7.84,12.2s-6.08,5-6.84,9.48a8.25,8.25,0,0,1,2.56-2.76,6.39,6.39,0,0,1,3.64-1.12c0.92,0,.92,0,5,1a3.4,3.4,0,0,0,.92.12,2.83,2.83,0,0,0,2.2-1,6,6,0,0,0,.92-2.88h0.4a59.54,59.54,0,0,0-1,8.4h-0.32V337.4h0Z"/><g id="Page-1-3"><g id="Fill-14-3"><path class="cls-2" d="M86,116.28a94.79,94.79,0,0,1-9.36,15.12C70.31,139.74,67,144.47,67,150.72a8.44,8.44,0,0,0,8,8.72c4,0,6.56-1.44,7.91-6.6,0.55-2.09,1.72-1.68,1.41.6-0.37,2.69-.39,8.55-4.74,13.84h12.8C88,162,88,156.13,87.64,153.44c-0.31-2.28.86-2.69,1.41-.6,1.35,5.16,3.94,6.6,7.91,6.6a8.44,8.44,0,0,0,8-8.72c0-6.24-3.31-11-9.64-19.32A94.59,94.59,0,0,1,86,116.28"/></g></g><g id="Page-1-4"><g id="Fill-14-4"><path class="cls-2" d="M163.67,116.28a94.79,94.79,0,0,1-9.36,15.12c-6.34,8.34-9.64,13.07-9.64,19.32a8.44,8.44,0,0,0,8,8.72c4,0,6.56-1.44,7.91-6.6,0.55-2.09,1.72-1.68,1.41.6-0.37,2.69-.39,8.55-4.74,13.84H170c-4.34-5.29-4.37-11.15-4.74-13.84-0.31-2.28.86-2.69,1.41-.6,1.35,5.16,3.94,6.6,7.91,6.6a8.44,8.44,0,0,0,8-8.72c0-6.24-3.31-11-9.64-19.32a94.59,94.59,0,0,1-9.35-15.12"/></g></g><g id="Page-1-5"><g id="Fill-14-5"><path class="cls-2" d="M86.17,184.12a94.79,94.79,0,0,1-9.36,15.12c-6.34,8.34-9.64,13.07-9.64,19.32a8.44,8.44,0,0,0,8,8.72c4,0,6.56-1.44,7.91-6.6,0.55-2.09,1.72-1.68,1.41.6-0.37,2.69-.39,8.55-4.74,13.84H92.54c-4.34-5.29-4.37-11.15-4.74-13.84-0.31-2.28.86-2.69,1.41-.6,1.35,5.16,3.94,6.6,7.91,6.6a8.44,8.44,0,0,0,8-8.72c0-6.24-3.31-11-9.64-19.32a94.59,94.59,0,0,1-9.35-15.12"/></g></g><g id="Page-1-6"><g id="Fill-14-6"><path class="cls-2" d="M163.84,184.12a94.79,94.79,0,0,1-9.36,15.12c-6.34,8.34-9.64,13.07-9.64,19.32a8.44,8.44,0,0,0,8,8.72c4,0,6.56-1.44,7.91-6.6,0.55-2.09,1.72-1.68,1.41.6-0.37,2.69-.39,8.55-4.74,13.84h12.79c-4.34-5.29-4.37-11.15-4.74-13.84-0.31-2.28.86-2.69,1.41-.6,1.35,5.16,3.94,6.6,7.91,6.6a8.44,8.44,0,0,0,8-8.72c0-6.24-3.31-11-9.64-19.32a94.59,94.59,0,0,1-9.35-15.12"/></g></g><g id="Page-1-7"><g id="Fill-14-7"><path class="cls-2" d="M124,82.29a94.79,94.79,0,0,1-9.36,15.12c-6.34,8.34-9.64,13.07-9.64,19.32a8.44,8.44,0,0,0,8,8.72c4,0,6.56-1.44,7.91-6.6,0.55-2.09,1.72-1.68,1.41.6-0.37,2.69-.39,8.55-4.74,13.84h12.79C126,128,126,122.14,125.64,119.45c-0.31-2.28.86-2.69,1.41-.6,1.35,5.16,3.94,6.6,7.91,6.6a8.44,8.44,0,0,0,8-8.72c0-6.24-3.31-11-9.64-19.32A94.59,94.59,0,0,1,124,82.29"/></g></g></g></svg>