<svg id="bottom_row" data-name="bottom row" xmlns="http://www.w3.org/2000/svg" viewBox="0 0 250 350"><defs><style>.cls-1{fill:#2b2b2b;}.cls-2,.cls-4{fill:#fff;}.cls-2,.cls-5{stroke:#fff;stroke-miterlimit:10;}.cls-3{isolation:isolate;}.cls-5{fill:none;}</style></defs><title>s-8</title><g id="_8_spades" data-name=" 8 spades"><rect class="cls-1" width="250" height="350" rx="10" ry="10"/><g id="Page-1"><g id="Fill-14"><path class="cls-2" d="M124,184.55a94.79,94.79,0,0,1-9.36,15.12C108.31,208,105,212.74,105,219a8.44,8.44,0,0,0,8,8.72c4,0,6.56-1.44,7.91-6.6,0.55-2.09,1.72-1.68,1.41.6-0.37,2.69-.39,8.55-4.74,13.84h12.79c-4.34-5.29-4.37-11.15-4.74-13.84-0.31-2.28.86-2.69,1.41-.6,1.35,5.16,3.94,6.6,7.91,6.6a8.44,8.44,0,0,0,8-8.72c0-6.24-3.31-11-9.64-19.32A94.59,94.59,0,0,1,124,184.55"/></g></g><g class="cls-3"><path class="cls-4" d="M28.17,21.92a7.13,7.13,0,0,1,1.72,4.8c0,5-4.24,8.8-9.84,8.8-5.2,0-9.24-2.88-9.24-6.6a5.24,5.24,0,0,1,1.4-3.52A9.1,9.1,0,0,1,16.09,23c-2.68-2-3.44-3.24-3.44-5.76a7.11,7.11,0,0,1,3-6.12,9.3,9.3,0,0,1,5.32-1.84c3.8,0,7,2.52,7,5.56,0,1.84-1,3-3.8,4.64A9.74,9.74,0,0,1,28.17,21.92ZM16,24.32a9.54,9.54,0,0,0-.64,4.16,9.79,9.79,0,0,0,.76,4.16c0.76,1.72,2,2.44,4.08,2.44,2.88,0,4.52-1.6,4.52-4.48A5,5,0,0,0,22.29,26c-0.28-.16-2.12-1-5.52-2.68A5.48,5.48,0,0,0,16,24.32Zm8.52-9.12a8.11,8.11,0,0,0-.68-3.88,3.21,3.21,0,0,0-2.76-1.6c-1.92,0-3.24,1.64-3.24,4A4.26,4.26,0,0,0,19,16.88c0.92,0.84,1.12,1,4.4,2.4C24.33,18.24,24.53,17.52,24.53,15.2Z"/></g><path class="cls-5" d="M28.17,21.92a7.13,7.13,0,0,1,1.72,4.8c0,5-4.24,8.8-9.84,8.8-5.2,0-9.24-2.88-9.24-6.6a5.24,5.24,0,0,1,1.4-3.52A9.1,9.1,0,0,1,16.09,23c-2.68-2-3.44-3.24-3.44-5.76a7.11,7.11,0,0,1,3-6.12A9.3,9.3,0,0,1,21,9.28c3.8,0,7,2.52,7,5.56,0,1.84-1,3-3.8,4.64A9.74,9.74,0,0,1,28.17,21.92ZM16,24.32a9.54,9.54,0,0,0-.64,4.16,9.79,9.79,0,0,0,.76,4.16c0.76,1.72,2,2.44,4.08,2.44,2.88,0,4.52-1.6,4.52-4.48A5,5,0,0,0,22.29,26c-0.28-.16-2.12-1-5.52-2.68A5.48,5.48,0,0,0,16,24.32Zm8.52-9.12a8.11,8.11,0,0,0-.68-3.88,3.21,3.21,0,0,0-2.76-1.6c-1.92,0-3.24,1.64-3.24,4A4.26,4.26,0,0,0,19,16.88c0.92,0.84,1.12,1,4.4,2.4,0.93-1,1.13-1.76,1.13-4.08h0Z"/><g id="Page-1-2"><g id="Fill-14-2"><path class="cls-2" d="M163.84,222.45a94.79,94.79,0,0,1-9.36,15.12c-6.34,8.34-9.64,13.07-9.64,19.32a8.44,8.44,0,0,0,8,8.72c4,0,6.56-1.44,7.91-6.6,0.55-2.09,1.72-1.68,1.41.6-0.37,2.69-.39,8.55-4.74,13.84h12.79c-4.34-5.29-4.37-11.15-4.74-13.84-0.31-2.28.86-2.69,1.41-.6,1.35,5.16,3.94,6.6,7.91,6.6a8.44,8.44,0,0,0,8-8.72c0-6.24-3.31-11-9.64-19.32a94.59,94.59,0,0,1-9.35-15.12"/></g></g><g class="cls-3"><path class="cls-4" d="M220.16,327.16a7.13,7.13,0,0,1-1.72-4.8c0-5,4.24-8.8,9.84-8.8,5.2,0,9.24,2.88,9.24,6.6a5.24,5.24,0,0,1-1.4,3.52,9.11,9.11,0,0,1-3.88,2.44c2.68,2,3.44,3.24,3.44,5.76a7.11,7.11,0,0,1-3,6.12,9.3,9.3,0,0,1-5.32,1.84c-3.8,0-7-2.52-7-5.56,0-1.84,1-3,3.8-4.64A9.74,9.74,0,0,1,220.16,327.16Zm12.16-2.4a9.53,9.53,0,0,0,.64-4.16,9.79,9.79,0,0,0-.76-4.16c-0.76-1.72-2-2.44-4.08-2.44-2.88,0-4.52,1.6-4.52,4.48A5,5,0,0,0,226,323c0.28,0.16,2.12,1,5.52,2.68A5.46,5.46,0,0,0,232.32,324.76Zm-8.52,9.12a8.1,8.1,0,0,0,.68,3.88,3.21,3.21,0,0,0,2.76,1.6c1.92,0,3.24-1.64,3.24-4a4.26,4.26,0,0,0-1.16-3.12c-0.92-.84-1.12-1-4.4-2.4C224,330.84,223.8,331.56,223.8,333.88Z"/></g><path class="cls-5" d="M220.16,327.16a7.13,7.13,0,0,1-1.72-4.8c0-5,4.24-8.8,9.84-8.8,5.2,0,9.24,2.88,9.24,6.6a5.24,5.24,0,0,1-1.4,3.52,9.11,9.11,0,0,1-3.88,2.44c2.68,2,3.44,3.24,3.44,5.76a7.11,7.11,0,0,1-3,6.12,9.3,9.3,0,0,1-5.32,1.84c-3.8,0-7-2.52-7-5.56,0-1.84,1-3,3.8-4.64A9.74,9.74,0,0,1,220.16,327.16Zm12.16-2.4a9.53,9.53,0,0,0,.64-4.16,9.79,9.79,0,0,0-.76-4.16c-0.76-1.72-2-2.44-4.08-2.44-2.88,0-4.52,1.6-4.52,4.48A5,5,0,0,0,226,323c0.28,0.16,2.12,1,5.52,2.68A5.46,5.46,0,0,0,232.32,324.76Zm-8.52,9.12a8.1,8.1,0,0,0,.68,3.88,3.21,3.21,0,0,0,2.76,1.6c1.92,0,3.24-1.64,3.24-4a4.26,4.26,0,0,0-1.16-3.12c-0.92-.84-1.12-1-4.4-2.4C224,330.84,223.8,331.56,223.8,333.88Z"/><g id="Page-1-3"><g id="Fill-14-3"><path class="cls-2" d="M86,82.28A94.79,94.79,0,0,1,76.65,97.4C70.31,105.74,67,110.47,67,116.72a8.44,8.44,0,0,0,8,8.72c4,0,6.56-1.44,7.91-6.6,0.55-2.09,1.72-1.68,1.41.6-0.37,2.69-.39,8.55-4.74,13.84h12.8C88,128,88,122.13,87.64,119.44c-0.31-2.28.86-2.69,1.41-.6,1.35,5.16,3.94,6.6,7.91,6.6a8.44,8.44,0,0,0,8-8.72c0-6.24-3.31-11-9.64-19.32A94.59,94.59,0,0,1,86,82.28"/></g></g><g id="Page-1-4"><g id="Fill-14-4"><path class="cls-2" d="M163.67,83.28a94.79,94.79,0,0,1-9.36,15.12c-6.34,8.34-9.64,13.07-9.64,19.32a8.44,8.44,0,0,0,8,8.72c4,0,6.56-1.44,7.91-6.6,0.55-2.09,1.72-1.68,1.41.6-0.37,2.69-.39,8.55-4.74,13.84H170c-4.34-5.29-4.37-11.15-4.74-13.84-0.31-2.28.86-2.69,1.41-.6,1.35,5.16,3.94,6.6,7.91,6.6a8.44,8.44,0,0,0,8-8.72c0-6.24-3.31-11-9.64-19.32a94.59,94.59,0,0,1-9.35-15.12"/></g></g><g id="Page-1-5"><g id="Fill-14-5"><path class="cls-2" d="M86.17,150.12a94.79,94.79,0,0,1-9.36,15.12c-6.34,8.34-9.64,13.07-9.64,19.32a8.44,8.44,0,0,0,8,8.72c4,0,6.56-1.44,7.91-6.6,0.55-2.09,1.72-1.68,1.41.6-0.37,2.69-.39,8.55-4.74,13.84H92.54c-4.34-5.29-4.37-11.15-4.74-13.84-0.31-2.28.86-2.69,1.41-.6,1.35,5.16,3.94,6.6,7.91,6.6a8.44,8.44,0,0,0,8-8.72c0-6.24-3.31-11-9.64-19.32a94.59,94.59,0,0,1-9.35-15.12"/></g></g><g id="Page-1-6"><g id="Fill-14-6"><path class="cls-2" d="M163.84,151.12a94.79,94.79,0,0,1-9.36,15.12c-6.34,8.34-9.64,13.07-9.64,19.32a8.44,8.44,0,0,0,8,8.72c4,0,6.56-1.44,7.91-6.6,0.55-2.09,1.72-1.68,1.41.6-0.37,2.69-.39,8.55-4.74,13.84h12.79c-4.34-5.29-4.37-11.15-4.74-13.84-0.31-2.28.86-2.69,1.41-.6,1.35,5.16,3.94,6.6,7.91,6.6a8.44,8.44,0,0,0,8-8.72c0-6.24-3.31-11-9.64-19.32a94.59,94.59,0,0,1-9.35-15.12"/></g></g><g id="Page-1-7"><g id="Fill-14-7"><path class="cls-2" d="M124,116.29a94.79,94.79,0,0,1-9.36,15.12c-6.34,8.34-9.64,13.07-9.64,19.32a8.44,8.44,0,0,0,8,8.72c4,0,6.56-1.44,7.91-6.6,0.55-2.09,1.72-1.68,1.41.6-0.37,2.69-.39,8.55-4.74,13.84h12.79C126,162,126,156.14,125.64,153.45c-0.31-2.28.86-2.69,1.41-.6,1.35,5.16,3.94,6.6,7.91,6.6a8.44,8.44,0,0,0,8-8.72c0-6.24-3.31-11-9.64-19.32A94.59,94.59,0,0,1,124,116.29"/></g></g><g id="Page-1-8"><g id="Fill-14-8"><path class="cls-2" d="M86.17,222.45a94.79,94.79,0,0,1-9.36,15.1c-6.34,8.34-9.64,13.07-9.64,19.32a8.44,8.44,0,0,0,8,8.72c4,0,6.56-1.44,7.91-6.6,0.55-2.09,1.72-1.68,1.41.6-0.37,2.69-.39,8.55-4.74,13.84H92.54c-4.34-5.29-4.37-11.15-4.74-13.84-0.31-2.28.86-2.69,1.41-.6,1.35,5.16,3.94,6.6,7.91,6.6a8.44,8.44,0,0,0,8-8.72c0-6.24-3.31-11-9.64-19.32a94.59,94.59,0,0,1-9.35-15.12"/></g></g></g></svg>