<svg id="top_row" data-name="top row" xmlns="http://www.w3.org/2000/svg" viewBox="0 0 250 350"><defs><style>.cls-1{fill:#2b2b2b;}.cls-2,.cls-4{fill:#fff;}.cls-2,.cls-5{stroke:#fff;stroke-miterlimit:10;}.cls-3{isolation:isolate;}.cls-5{fill:none;}</style></defs><title>s-a</title><g id="ace_spades" data-name="ace spades"><rect class="cls-1" width="250" height="350" rx="10" ry="10"/><g id="Page-1"><g id="Fill-14"><path class="cls-2" d="M125.54,98.35A268.82,268.82,0,0,1,99.68,141C82.18,164.59,73,177.94,73,195.57c0,14.94,11.43,24.6,22.18,24.6,11,0,18.12-4.07,21.84-18.63,1.53-5.91,4.76-4.74,3.9,1.69-1,7.61-1.09,24.14-13.1,39.07h35.34c-12-14.93-12.08-31.47-13.09-39.07-0.86-6.43,2.37-7.6,3.89-1.69,3.73,14.55,10.88,18.63,21.85,18.63,10.75,0,22.18-9.67,22.18-24.6,0-17.63-9.14-31-26.65-54.53a268.25,268.25,0,0,1-25.85-42.69"/></g></g><g class="cls-3"><path class="cls-4" d="M10.89,35.4c2.72-.08,4.52-2.2,6.36-7.56L23.17,9.36h6l8,23.52c0.64,2.2,1,2.48,2.52,2.52h1.16V36H25.29V35.4h1.64c1.2,0,1.72-.36,1.72-1.12a5.13,5.13,0,0,0-.24-1.4L25.85,25H18.77l-0.88,2.76a12,12,0,0,0-.56,3.36c0,3,1.36,4.32,4.44,4.32V36H10.89V35.4Zm14.8-11L22.41,13.76l-3.52,10.6Z"/></g><path class="cls-5" d="M10.89,35.4c2.72-.08,4.52-2.2,6.36-7.56L23.17,9.36h6l8,23.52c0.64,2.2,1,2.48,2.52,2.52h1.16V36H25.29V35.4h1.64c1.2,0,1.72-.36,1.72-1.12a5.13,5.13,0,0,0-.24-1.4L25.85,25H18.77l-0.88,2.76a12,12,0,0,0-.56,3.36c0,3,1.36,4.32,4.44,4.32V36H10.89V35.4Zm14.8-11L22.41,13.76l-3.52,10.6Z"/><g class="cls-3"><path class="cls-4" d="M240.31,315.68c-2.72.08-4.52,2.2-6.36,7.56L228,341.71h-6l-8-23.52c-0.64-2.2-1-2.48-2.52-2.52h-1.16V315h15.52v0.64h-1.64c-1.2,0-1.72.36-1.72,1.12a5.11,5.11,0,0,0,.24,1.4l2.56,7.92h7.08l0.88-2.76a12,12,0,0,0,.56-3.36c0-3-1.36-4.32-4.44-4.32V315h10.88v0.64Zm-14.8,11,3.28,10.64,3.52-10.6Z"/></g><path class="cls-5" d="M240.31,315.68c-2.72.08-4.52,2.2-6.36,7.56L228,341.71h-6l-8-23.52c-0.64-2.2-1-2.48-2.52-2.52h-1.16V315h15.52v0.64H224.2c-1.2,0-1.72.36-1.72,1.12a5.11,5.11,0,0,0,.24,1.4l2.56,7.92h7.08l0.88-2.76a12,12,0,0,0,.56-3.36c0-3-1.36-4.32-4.44-4.32V315h10.88v0.64Zm-14.8,11,3.28,10.64,3.52-10.6Z"/></g></svg>