<svg id="bottom_row" data-name="bottom row" xmlns="http://www.w3.org/2000/svg" viewBox="0 0 250 350"><defs><style>.cls-1{fill:#2b2b2b;}.cls-2{isolation:isolate;}.cls-3,.cls-5{fill:#fff;}.cls-4{fill:none;}.cls-4,.cls-5{stroke:#fff;stroke-miterlimit:10;}</style></defs><title>s-j</title><g id="J"><rect class="cls-1" width="250" height="350" rx="10" ry="10"/><g class="cls-2"><path class="cls-3" d="M29.93,27.08a10.86,10.86,0,0,1-.44,3.68c-1.12,2.64-5.84,4.8-10.4,4.8-5.4,0-9-2.68-9-6.76A4.93,4.93,0,0,1,15,23.68a4.63,4.63,0,0,1,4.68,4.52,4.37,4.37,0,0,1-4.28,4.44,5.63,5.63,0,0,1-2.08-.4,4,4,0,0,0,4.08,2.52c3,0,4.56-2,4.56-5.64v-18c0-1.56-.64-2-2.64-2.12H18.17V8.36H33V9H32a1.77,1.77,0,0,0-2,1.92V27.08Z"/></g><path class="cls-4" d="M29.93,27.08a10.86,10.86,0,0,1-.44,3.68c-1.12,2.64-5.84,4.8-10.4,4.8-5.4,0-9-2.68-9-6.76a4.93,4.93,0,0,1,4.74-5.12H15a4.63,4.63,0,0,1,4.68,4.52,4.37,4.37,0,0,1-4.28,4.44,5.63,5.63,0,0,1-2.08-.4,4,4,0,0,0,4.08,2.52c3,0,4.56-2,4.56-5.64v-18c0-1.56-.64-2-2.64-2.12H18.17V8.36H33V9H32a1.77,1.77,0,0,0-2,1.92V27.08H29.93Z"/><g class="cls-2"><path class="cls-3" d="M218.4,322a10.84,10.84,0,0,1,.44-3.68c1.12-2.64,5.84-4.8,10.4-4.8,5.4,0,9,2.68,9,6.76a4.93,4.93,0,0,1-4.88,5.12,4.63,4.63,0,0,1-4.68-4.52,4.37,4.37,0,0,1,4.28-4.44,5.63,5.63,0,0,1,2.08.4,4,4,0,0,0-4.08-2.52c-3,0-4.56,2-4.56,5.64v18c0,1.56.64,2,2.64,2.12h1.16v0.64H215.28v-0.64h1.08a1.77,1.77,0,0,0,2-1.92V322Z"/></g><path class="cls-4" d="M218.4,322a10.84,10.84,0,0,1,.44-3.68c1.12-2.64,5.84-4.8,10.4-4.8,5.4,0,9,2.68,9,6.76a4.93,4.93,0,0,1-4.74,5.12h-0.14a4.63,4.63,0,0,1-4.68-4.52,4.37,4.37,0,0,1,4.28-4.44,5.63,5.63,0,0,1,2.08.4,4,4,0,0,0-4.08-2.52c-3,0-4.56,2-4.56,5.64v18c0,1.56.64,2,2.64,2.12h1.16v0.64H215.28v-0.64h1.08a1.77,1.77,0,0,0,2-1.92V322h0Z"/><path class="cls-3" d="M153.91,206.14c0,7.69-.73,14.09-2,16.84-5.12,12.08-26.72,22-47.58,22-24.71,0-41-12.26-41-30.93,0-13.18,9.7-23.42,22.33-23.42,11.71,0,21.41,9.33,21.41,20.68,0,11.16-8.78,20.31-19.58,20.31A25.8,25.8,0,0,1,78,229.75c3.48,7.87,9.52,11.53,18.67,11.53,13.54,0,20.86-9,20.86-25.8V133.13c0-7.14-2.93-9.33-12.08-9.7h-5.31V120.5h68.08v2.93h-4.94c-6.22,0-9.15,2.93-9.33,8.78v73.93h0Z"/><path class="cls-4" d="M153.91,206.14c0,7.69-.73,14.09-2,16.84-5.12,12.08-26.72,22-47.58,22-24.71,0-41-12.26-41-30.93,0-13.18,9.7-23.42,22.33-23.42,11.71,0,21.41,9.33,21.41,20.68,0,11.16-8.78,20.31-19.58,20.31A25.8,25.8,0,0,1,78,229.75c3.48,7.87,9.52,11.53,18.67,11.53,13.54,0,20.86-9,20.86-25.8V133.13c0-7.14-2.93-9.33-12.08-9.7h-5.31V120.5h68.08v2.93h-4.94c-6.22,0-9.15,2.93-9.33,8.78v73.93h0Z"/><g id="Page-1"><g id="Fill-14"><path class="cls-5" d="M134.73,68.8a94.79,94.79,0,0,1-9.36,15.12c-6.34,8.34-9.64,13.07-9.64,19.32a8.44,8.44,0,0,0,8,8.72c4,0,6.56-1.44,7.91-6.6,0.55-2.09,1.72-1.68,1.41.6-0.37,2.69-.39,8.55-4.74,13.84h12.86c-4.34-5.29-4.37-11.15-4.74-13.84-0.31-2.28.86-2.69,1.41-.6,1.35,5.16,3.94,6.6,7.91,6.6a8.44,8.44,0,0,0,8-8.72c0-6.24-3.31-11-9.64-19.32a94.6,94.6,0,0,1-9.35-15.12"/></g></g></g></svg>